<?xml version="1.0" standalone="no"?><!DOCTYPE svg PUBLIC "-//W3C//DTD SVG 1.1//EN" "http://www.w3.org/Graphics/SVG/1.1/DTD/svg11.dtd"><svg t="1677831735437" class="icon" viewBox="0 0 1024 1024" version="1.1" xmlns="http://www.w3.org/2000/svg" p-id="3446" xmlns:xlink="http://www.w3.org/1999/xlink" width="200" height="200"><path d="M512 943.559111l-9.443556-3.640889c-15.473778-6.030222-380.814222-149.276444-380.814222-365.795555V193.422222l15.587556-6.940444c8.988444-3.982222 204.8-58.595556 367.729778-103.765334l6.940444-2.275555 390.257778 109.795555v383.886223c0 216.177778-365.340444 359.765333-380.814222 365.795555zM174.08 229.376v344.746667C174.08 737.962667 456.362667 864.028444 512 887.466667c55.637333-22.755556 337.92-149.276444 337.92-313.116445V229.831111L512 134.826667c-118.101333 32.768-284.444444 78.961778-337.92 94.549333z" fill="#0590DF" p-id="3447"></path><path d="M460.913778 686.762667L265.443556 480.028444l38.001777-35.953777 157.582223 166.570666 259.527111-273.408 38.001777 36.067556-297.642666 313.457778z" fill="#0590DF" p-id="3448"></path></svg>