<?xml version="1.0" standalone="no"?><!DOCTYPE svg PUBLIC "-//W3C//DTD SVG 1.1//EN" "http://www.w3.org/Graphics/SVG/1.1/DTD/svg11.dtd"><svg t="1680436062848" class="icon" viewBox="0 0 1024 1024" version="1.1" xmlns="http://www.w3.org/2000/svg" p-id="2406" width="24" height="24" xmlns:xlink="http://www.w3.org/1999/xlink"><path d="M188.8704 576.192a187.712 187.712 0 0 1 188.928 189.12 189.184 189.184 0 0 1-188.928 190.912A189.184 189.184 0 0 1 0.0064 765.312a187.712 187.712 0 0 1 188.864-189.12z m359.68 250.176v81.472h-61.44a40.128 40.128 0 0 1-39.296-34.688l-0.448-6.016c0-20.48 14.72-37.376 33.92-40.32l5.888-0.384 61.44-0.064z m-359.68-169.664c-60.288 0-109.376 46.848-109.376 108.608 0 61.76 49.088 110.144 109.44 110.144 60.288 0 109.312-48.384 109.312-110.08 0-61.824-49.024-108.672-109.376-108.672z m359.68-59.392v81.408h-61.44a40.128 40.128 0 0 1-39.296-34.624L447.3664 638.08c0-20.48 14.72-37.376 33.92-40.32l5.888-0.448h61.44zM188.8704 64C293.1264 64 377.7984 149.568 377.7984 256.256A188.032 188.032 0 0 1 188.8064 445.76 188.032 188.032 0 0 1 0.0064 256.256C0.0064 149.568 84.7424 64 188.8704 64zM984.3264 342.784a40.32 40.32 0 0 1 39.744 40.704c0 20.48-14.72 37.376-33.92 40.32l-5.824 0.448H487.1744a40.32 40.32 0 0 1-39.808-40.768c0-20.416 14.72-37.376 33.92-40.256l5.888-0.448h497.088zM188.8064 147.584c-60.288 0-109.376 46.912-109.376 108.608 0 61.76 49.088 108.16 109.44 108.16 60.288 0 109.312-46.4 109.312-108.16 0-61.696-49.024-108.608-109.376-108.608z m795.392-33.92a40.32 40.32 0 0 1 39.744 40.768c0 20.416-14.72 37.312-33.92 40.256l-5.824 0.448H487.1744a40.32 40.32 0 0 1-39.808-40.704c0-20.48 14.72-37.376 33.92-40.32l5.888-0.448h497.088zM816.2624 918.528V847.36c0-10.56-16.192-15.872-30.08-15.872-13.824 0-33.152 3.84-33.152 15.872v71.168c0 9.088-6.144 15.104-15.36 15.104h-97.152c-23.104 0-40.064-16.64-40.064-37.824V752c0-9.088 12.8-15.104 22.08-15.104 9.216 0 21.76 6.016 21.76 15.104v133.12c0 4.48 3.072 7.552 9.216 7.552h59.392v-45.312c0-35.456 43.968-56.32 73.28-56.32 29.312 0 72 20.864 72 56.32v45.312h63.168c4.608 0 7.68 0 7.68-9.088V752c0-9.088 12.16-15.104 21.44-15.104 9.28 0 21.44 6.016 21.44 15.104v143.808c-1.536 22.656-16.96 37.824-40.064 37.824h-100.16c-9.28 0-15.424-6.016-15.424-15.104zM582.4064 712.256c-6.08-6.528-9.216-27.904-3.136-32.768l178.88-157.696c16.64-13.056 40.96-13.056 56.064 0l178.88 156.096c6.08 4.864 6.08 27.84 0 34.368-6.016 6.464-27.2 6.464-33.28 0l-163.776-142.72a18.24 18.24 0 0 0-18.176 0L615.0464 716.416c-3.008 3.264-6.016 3.264-9.088 3.264-4.48 0-20.544-2.56-23.616-7.424z" fill="#707070" p-id="2407"></path></svg>