<?xml version="1.0" standalone="no"?><!DOCTYPE svg PUBLIC "-//W3C//DTD SVG 1.1//EN" "http://www.w3.org/Graphics/SVG/1.1/DTD/svg11.dtd"><svg t="1680436429435" class="icon" viewBox="0 0 1024 1024" version="1.1" xmlns="http://www.w3.org/2000/svg" p-id="2757" width="45" height="45" xmlns:xlink="http://www.w3.org/1999/xlink"><path d="M405.333333 170.666667C228.693333 170.666667 85.333333 285.44 85.333333 426.666667c0 80.64 46.08 151.893333 118.613334 198.826666L170.666667 725.333333l106.666666-64c37.973333 13.226667 79.786667 21.333333 124.16 21.333334A222.72 222.72 0 0 1 384 597.333333c0-141.226667 133.546667-256 298.666667-256 8.106667 0 16.213333 0 23.893333 1.28C663.04 242.773333 545.28 170.666667 405.333333 170.666667m-128 106.666666c23.466667 0 42.666667 19.2 42.666667 42.666667s-19.2 42.666667-42.666667 42.666667-42.666667-19.2-42.666666-42.666667 19.2-42.666667 42.666666-42.666667m213.333334 0c23.466667 0 42.666667 19.2 42.666666 42.666667s-19.2 42.666667-42.666666 42.666667-42.666667-19.2-42.666667-42.666667 19.2-42.666667 42.666667-42.666667M682.666667 384c-141.226667 0-256 95.573333-256 213.333333s114.773333 213.333333 256 213.333334c28.586667 0 55.893333-3.413333 81.493333-10.666667L853.333333 853.333333l-26.453333-79.786666C893.866667 734.72 938.666667 670.293333 938.666667 597.333333c0-117.76-114.773333-213.333333-256-213.333333m-85.333334 106.666667c23.466667 0 42.666667 19.2 42.666667 42.666666s-19.2 42.666667-42.666667 42.666667-42.666667-19.2-42.666666-42.666667 19.2-42.666667 42.666666-42.666666m170.666667 0c23.466667 0 42.666667 19.2 42.666667 42.666666s-19.2 42.666667-42.666667 42.666667-42.666667-19.2-42.666667-42.666667 19.2-42.666667 42.666667-42.666666z" fill="#8a8a8a" p-id="2758"></path></svg>