<?xml version="1.0" standalone="no"?><!DOCTYPE svg PUBLIC "-//W3C//DTD SVG 1.1//EN" "http://www.w3.org/Graphics/SVG/1.1/DTD/svg11.dtd"><svg t="1677809829053" class="icon" viewBox="0 0 1024 1024" version="1.1" xmlns="http://www.w3.org/2000/svg" p-id="3364" xmlns:xlink="http://www.w3.org/1999/xlink" width="200" height="200"><path d="M873.066667 533.333333h-39.466667c-4.202667 0-8.256 0.576-12.266667 1.237334V433.066667C821.333333 264.853333 682.56 128 512 128S202.666667 264.853333 202.666667 433.066667v101.504A75.434667 75.434667 0 0 0 190.378667 533.333333H150.954667A76.373333 76.373333 0 0 0 74.666667 609.6v210.133333A76.373333 76.373333 0 0 0 150.954667 896h39.445333a76.373333 76.373333 0 0 0 76.288-76.266667V433.066667C266.666667 300.138667 376.725333 192 512 192s245.333333 108.138667 245.333333 241.066667v386.666666A76.352 76.352 0 0 0 833.6 896h39.466667a76.352 76.352 0 0 0 76.266666-76.266667v-210.133333A76.373333 76.373333 0 0 0 873.066667 533.333333zM202.666667 714.666667v105.066666a12.288 12.288 0 0 1-12.288 12.266667H150.954667a12.288 12.288 0 0 1-12.288-12.266667v-210.133333c0-6.762667 5.504-12.266667 12.288-12.266667h39.445333c6.762667 0 12.266667 5.504 12.266667 12.266667V714.666667z m682.666666 105.066666a12.288 12.288 0 0 1-12.266666 12.266667h-39.466667a12.288 12.288 0 0 1-12.266667-12.266667v-210.133333c0-6.762667 5.504-12.266667 12.266667-12.266667h39.466667c6.762667 0 12.266667 5.504 12.266666 12.266667v210.133333z" fill="#232323" p-id="3365"></path><path d="M682.666667 578.666667h-85.333334c-12.394667 0-23.658667 7.168-28.949333 18.368l-9.472 20.138666-52.501333-125.546666c-5.056-12.074667-17.642667-19.477333-30.101334-19.648a32.021333 32.021333 0 0 0-29.376 20.736l-32.362666 85.930666H341.333333a32 32 0 1 0 0 64h95.381334a32 32 0 0 0 29.952-20.736l11.776-31.274666 49.216 117.696c4.885333 11.669333 16.170667 19.349333 28.821333 19.648h0.704a32 32 0 0 0 28.949333-18.368l31.530667-66.965334H682.666667a32 32 0 0 0 0-63.978666z" fill="#232323" p-id="3366"></path></svg>