<?xml version="1.0" standalone="no"?><!DOCTYPE svg PUBLIC "-//W3C//DTD SVG 1.1//EN" "http://www.w3.org/Graphics/SVG/1.1/DTD/svg11.dtd"><svg t="1677809803390" class="icon" viewBox="0 0 1024 1024" version="1.1" xmlns="http://www.w3.org/2000/svg" p-id="2360" xmlns:xlink="http://www.w3.org/1999/xlink" width="200" height="200"><path d="M891.2 326.4l-121.6 69.6v-144c0-33.6-27.2-60.8-60.8-60.8h-560c-33.6 0-60.8 27.2-60.8 60.8v545.6c0 33.6 27.2 60.8 60.8 60.8h560.8c33.6 0 60.8-27.2 60.8-60.8v-144l121.6 69.6c20 12 45.6-3.2 45.6-26.4v-344c-0.8-23.2-25.6-37.6-46.4-26.4z m-188.8 464H156V260h545.6v530.4z m166.4-157.6L770.4 576V475.2l98.4-56.8v214.4z" p-id="2361"></path><path d="M426.4 600c-0.8 0.8-1.6 1.6-1.6 2.4-5.6 8-10.4 16.8-16.8 24.8-7.2 10.4-16 20.8-25.6 29.6-8 7.2-16.8 13.6-27.2 17.6-6.4 2.4-13.6 3.2-20.8 2.4-6.4-0.8-12-4-16.8-8.8-6.4-5.6-11.2-12.8-15.2-20.8-3.2-6.4-7.2-13.6-9.6-20-3.2-8-7.2-16.8-9.6-25.6-3.2-10.4-6.4-20-9.6-30.4-3.2-10.4-5.6-21.6-8-32-2.4-8.8-4-17.6-5.6-26.4-1.6-8-2.4-16-4-24-0.8-6.4-1.6-13.6-2.4-20 0-2.4 0-4-0.8-6.4-0.8-12-0.8-24 0-35.2 0.8-9.6 2.4-18.4 6.4-27.2s9.6-16 18.4-20.8c7.2-4 14.4-4.8 21.6-3.2 8.8 1.6 16.8 5.6 24.8 11.2 8.8 6.4 16 13.6 23.2 20.8 8 8.8 15.2 17.6 22.4 27.2 8 10.4 15.2 21.6 22.4 32.8 9.6 15.2 18.4 30.4 28 45.6 2.4 3.2 4 6.4 5.6 10.4 0 0.8 0.8 0.8 0.8 1.6 2.4-4 4.8-7.2 7.2-11.2 10.4-17.6 21.6-35.2 33.6-52.8 10.4-15.2 20.8-30.4 32.8-44.8 8-9.6 16-18.4 25.6-25.6 7.2-5.6 14.4-10.4 23.2-12.8 12-4 23.2-2.4 33.6 6.4 5.6 4.8 9.6 10.4 12 16.8 3.2 8 4.8 16 6.4 24 1.6 12 0.8 23.2 0 35.2-0.8 7.2-0.8 13.6-2.4 20.8-1.6 12-3.2 23.2-5.6 35.2-1.6 8-3.2 16.8-5.6 24.8l-7.2 28.8c-2.4 8.8-5.6 18.4-8.8 27.2-4 12.8-9.6 25.6-15.2 37.6-4 8-8 16-12.8 23.2-4 5.6-8.8 10.4-14.4 14.4-6.4 4.8-14.4 5.6-22.4 4.8-12-1.6-21.6-7.2-31.2-14.4-11.2-8.8-20.8-20-29.6-32-6.4-8.8-12.8-18.4-18.4-28 0.8-1.6 0-2.4-0.8-3.2z m139.2-156.8c-0.8-5.6-0.8-11.2-1.6-16.8l-2.4-9.6c-0.8-3.2-3.2-4-6.4-2.4-1.6 0.8-2.4 1.6-4 2.4-7.2 4.8-12.8 11.2-18.4 16.8-12.8 13.6-23.2 28.8-33.6 44-9.6 14.4-18.4 28.8-27.2 43.2-7.2 12-14.4 24-21.6 35.2-3.2 4.8-3.2 4.8 0 10.4 4.8 9.6 10.4 19.2 16.8 28.8 8 12.8 16.8 24.8 28 35.2 2.4 2.4 5.6 4.8 8.8 7.2 4 2.4 8 1.6 10.4-2.4 0-0.8 0.8-0.8 0.8-1.6 6.4-9.6 10.4-20.8 15.2-31.2l9.6-26.4c2.4-6.4 4-12.8 5.6-19.2 3.2-12.8 6.4-24.8 9.6-37.6 2.4-9.6 4-20 5.6-29.6 1.6-8 2.4-15.2 3.2-23.2 0.8-8 1.6-16 1.6-23.2z m-160 117.6c-0.8-0.8-0.8-2.4-1.6-3.2-4-6.4-7.2-12.8-11.2-19.2-8.8-14.4-17.6-29.6-26.4-44-8.8-14.4-18.4-28.8-28.8-42.4-8-11.2-16.8-21.6-27.2-31.2-3.2-3.2-6.4-5.6-9.6-8-3.2-2.4-6.4-1.6-8 2.4-0.8 1.6-1.6 3.2-1.6 4.8-0.8 4.8-1.6 10.4-1.6 15.2-0.8 10.4 0.8 21.6 1.6 32 0.8 8.8 2.4 17.6 4 27.2 1.6 10.4 4 20.8 6.4 31.2 2.4 9.6 4.8 20 7.2 29.6 3.2 10.4 6.4 20.8 9.6 32 4 12 8 23.2 13.6 34.4 2.4 4 4.8 8.8 7.2 12.8 1.6 3.2 5.6 4.8 9.6 2.4 3.2-2.4 7.2-4.8 10.4-8 10.4-9.6 18.4-20 25.6-32 5.6-8 10.4-16 15.2-24.8 1.6-2.4 3.2-6.4 5.6-11.2z" p-id="2362"></path></svg>