<?xml version="1.0" encoding="UTF-8"?>
<!DOCTYPE svg PUBLIC "-//W3C//DTD SVG 1.1//EN" "http://www.w3.org/Graphics/SVG/1.1/DTD/svg11.dtd">
<svg xmlns="http://www.w3.org/2000/svg" version="1.1" width="1024px" height="1024px" style="shape-rendering:geometricPrecision; text-rendering:geometricPrecision; image-rendering:optimizeQuality; fill-rule:evenodd; clip-rule:evenodd" xmlns:xlink="http://www.w3.org/1999/xlink">
<g><path style="opacity:0.049" fill="#dfe0e8" d="M 219.5,143.5 C 205.112,141.516 193.112,145.849 183.5,156.5C 187.959,149.566 194.293,145.066 202.5,143C 208.349,142.182 214.015,142.348 219.5,143.5 Z"/></g>
<g><path style="opacity:0.037" fill="#ecedf1" d="M 823.5,144.5 C 826.112,146.052 827.445,148.386 827.5,151.5C 825.917,149.337 824.584,147.004 823.5,144.5 Z"/></g>
<g><path style="opacity:0.027" fill="#ebecf1" d="M 823.5,144.5 C 820.455,141.453 817.122,138.787 813.5,136.5C 805.601,132.73 797.267,131.564 788.5,133C 746.854,142.332 708.187,158.498 672.5,181.5C 705.932,158.503 742.598,142.336 782.5,133C 791.509,131.036 800.509,131.036 809.5,133C 815.637,135.21 820.304,139.044 823.5,144.5 Z"/></g>
<g><path style="opacity:0.996" fill="#06084e" d="M 813.5,136.5 C 813.9,138.377 814.9,139.877 816.5,141C 814.322,142.938 814.656,144.771 817.5,146.5C 818.192,145.975 818.692,145.308 819,144.5C 820.32,146.654 822.153,148.154 824.5,149C 824.327,151.407 824.327,153.74 824.5,156C 826.017,159.026 827.35,162.193 828.5,165.5C 827.975,166.192 827.308,166.692 826.5,167C 827.051,168.398 827.384,169.732 827.5,171C 826.357,174.022 825.023,174.188 823.5,171.5C 824.135,167.633 824.801,163.8 825.5,160C 824.167,158 822.833,158 821.5,160C 822.26,161.441 822.926,162.941 823.5,164.5C 822.711,170.115 822.211,175.782 822,181.5C 819.545,182.743 818.378,184.743 818.5,187.5C 820.144,187.286 821.644,187.62 823,188.5C 823.667,187.833 824.333,187.167 825,186.5C 825.465,187.931 826.299,189.097 827.5,190C 825.088,193.162 822.755,192.995 820.5,189.5C 819.081,191.958 818.081,194.625 817.5,197.5C 817.166,194.464 816.666,191.131 816,187.5C 815.042,189.199 814.542,191.033 814.5,193C 814.67,198.403 814.67,203.737 814.5,209C 814.439,210.711 815.106,212.044 816.5,213C 814.981,214.351 813.648,215.851 812.5,217.5C 812.167,217.167 811.833,216.833 811.5,216.5C 813.922,214.274 813.922,211.94 811.5,209.5C 812.833,207.167 812.833,204.833 811.5,202.5C 813.994,199.747 813.994,197.08 811.5,194.5C 812.833,191.167 812.833,187.833 811.5,184.5C 815.35,177.788 816.016,177.955 813.5,185C 813.833,185.5 814.167,186 814.5,186.5C 816.422,184.997 817.588,182.997 818,180.5C 818.414,180.957 818.914,181.291 819.5,181.5C 820.259,178.843 820.926,176.177 821.5,173.5C 820.833,168.833 820.167,164.167 819.5,159.5C 821.441,157.684 822.108,155.684 821.5,153.5C 821.154,152.304 820.654,152.304 820,153.5C 819,155.5 818,157.5 817,159.5C 816.138,157.913 815.471,156.246 815,154.5C 815.631,157.343 815.131,159.843 813.5,162C 814.598,164.498 814.432,166.998 813,169.5C 812.667,167.833 812.333,166.167 812,164.5C 810.653,166.193 810.153,167.86 810.5,169.5C 809.402,167.368 808.402,165.202 807.5,163C 812.324,162.185 813.491,159.685 811,155.5C 809.601,154.773 808.101,154.273 806.5,154C 807.888,153.111 807.722,152.611 806,152.5C 804.877,154.1 803.377,155.1 801.5,155.5C 792.002,155.228 782.668,156.728 773.5,160C 767.539,161.704 761.872,163.871 756.5,166.5C 754.447,166.402 752.78,167.069 751.5,168.5C 746.983,169.097 742.983,170.763 739.5,173.5C 736.759,173.707 734.426,174.707 732.5,176.5C 732.158,177.338 731.492,177.672 730.5,177.5C 728.181,177.992 726.181,178.992 724.5,180.5C 724.158,181.338 723.492,181.672 722.5,181.5C 719.669,182.079 717.336,183.412 715.5,185.5C 713.326,185.75 711.659,186.75 710.5,188.5C 707.669,189.079 705.336,190.412 703.5,192.5C 701.973,192.427 700.973,193.094 700.5,194.5C 698.973,194.427 697.973,195.094 697.5,196.5C 696.71,197.401 695.71,198.068 694.5,198.5C 692.973,198.427 691.973,199.094 691.5,200.5C 689.596,200.738 688.262,201.738 687.5,203.5C 685.973,203.427 684.973,204.094 684.5,205.5C 683.127,205.343 681.793,205.51 680.5,206C 681.598,206.77 681.598,207.603 680.5,208.5C 680.167,209.5 679.5,210.167 678.5,210.5C 676.596,210.738 675.262,211.738 674.5,213.5C 673.513,218.305 673.179,223.305 673.5,228.5C 670.81,227.454 668.143,226.454 665.5,225.5C 664.508,225.672 663.842,225.338 663.5,224.5C 661.574,222.707 659.241,221.707 656.5,221.5C 655.209,221.737 654.209,221.404 653.5,220.5C 652.22,219.069 650.553,218.402 648.5,218.5C 644.216,217.739 640.216,216.405 636.5,214.5C 634.562,212.837 632.228,212.171 629.5,212.5C 627.562,210.837 625.228,210.171 622.5,210.5C 616.404,209.475 610.404,208.142 604.5,206.5C 601.091,205.097 597.425,204.43 593.5,204.5C 576.172,202.567 558.839,200.9 541.5,199.5C 502.846,197.251 464.18,198.751 425.5,204C 417.574,204.873 409.907,206.373 402.5,208.5C 391.748,209.448 381.414,211.781 371.5,215.5C 365.513,216.409 359.847,218.076 354.5,220.5C 351.859,221.263 349.192,221.43 346.5,221C 343.603,218.59 340.603,216.423 337.5,214.5C 337.027,213.094 336.027,212.427 334.5,212.5C 333.738,210.738 332.404,209.738 330.5,209.5C 327.839,206.498 324.505,204.498 320.5,203.5C 319.341,201.75 317.674,200.75 315.5,200.5C 308.036,195.77 300.036,192.103 291.5,189.5C 289.597,189.204 287.93,188.537 286.5,187.5C 285.22,186.069 283.553,185.402 281.5,185.5C 280.209,185.737 279.209,185.404 278.5,184.5C 276.208,182.733 273.542,181.733 270.5,181.5C 269.209,181.737 268.209,181.404 267.5,180.5C 264.785,178.928 261.785,177.928 258.5,177.5C 256.901,177.768 255.568,177.434 254.5,176.5C 252.562,174.837 250.228,174.171 247.5,174.5C 235.724,171.931 223.89,169.598 212,167.5C 208.677,167.251 205.843,168.251 203.5,170.5C 201.896,171.287 201.229,172.62 201.5,174.5C 201.691,197.947 203.358,221.281 206.5,244.5C 206.625,249.794 207.625,254.794 209.5,259.5C 210.451,260.919 210.784,262.585 210.5,264.5C 210.171,267.228 210.837,269.562 212.5,271.5C 214.669,277.341 216.669,283.341 218.5,289.5C 218.402,291.553 219.069,293.22 220.5,294.5C 221.338,294.842 221.672,295.508 221.5,296.5C 221.427,298.027 222.094,299.027 223.5,299.5C 223.427,301.027 224.094,302.027 225.5,302.5C 225.738,304.404 226.738,305.738 228.5,306.5C 229.08,308.749 230.413,310.415 232.5,311.5C 233.167,311.5 233.5,311.833 233.5,312.5C 233.5,312.833 233.5,313.167 233.5,313.5C 233.5,314.5 233.5,315.5 233.5,316.5C 231.323,316.414 229.323,315.747 227.5,314.5C 225.929,315.309 224.262,315.643 222.5,315.5C 222.881,320.088 224.047,320.422 226,316.5C 226.195,318.207 226.195,319.874 226,321.5C 227.242,320.128 228.742,319.128 230.5,318.5C 231.731,319.651 231.731,320.817 230.5,322C 235.794,322.818 235.794,323.318 230.5,323.5C 230.523,325.6 229.856,327.433 228.5,329C 228.833,329.5 229.167,330 229.5,330.5C 230.515,327.832 232.182,327.166 234.5,328.5C 233.863,330.303 232.697,331.636 231,332.5C 230.627,335.858 231.461,336.192 233.5,333.5C 234.251,334.376 234.751,335.376 235,336.5C 237.718,335.987 240.551,335.987 243.5,336.5C 243.5,337.833 243.5,339.167 243.5,340.5C 241.453,340.489 239.453,340.156 237.5,339.5C 235.575,339.59 234.408,340.59 234,342.5C 233.517,341.552 233.351,340.552 233.5,339.5C 231.857,339.52 230.524,338.853 229.5,337.5C 228.464,334.541 226.964,331.875 225,329.5C 224.626,330.416 224.126,331.25 223.5,332C 226.062,333.268 226.728,335.102 225.5,337.5C 224.264,336.754 222.93,336.421 221.5,336.5C 219.5,334.833 217.5,333.167 215.5,331.5C 214.833,331.5 214.5,331.167 214.5,330.5C 214.262,328.596 213.262,327.262 211.5,326.5C 210.833,326.5 210.5,326.167 210.5,325.5C 210.573,323.973 209.906,322.973 208.5,322.5C 207.66,320.147 206.326,318.147 204.5,316.5C 202.07,310.643 199.403,304.977 196.5,299.5C 195.739,295.216 194.405,291.216 192.5,287.5C 191.596,286.791 191.263,285.791 191.5,284.5C 184.366,253.561 180.032,222.227 178.5,190.5C 178.5,184.5 178.5,178.5 178.5,172.5C 178.963,169.518 179.296,166.518 179.5,163.5C 181.083,161.337 182.416,159.004 183.5,156.5C 193.112,145.849 205.112,141.516 219.5,143.5C 239.187,148.005 258.854,153.005 278.5,158.5C 281.797,160.601 285.463,161.935 289.5,162.5C 290.78,163.931 292.447,164.598 294.5,164.5C 295.78,165.931 297.447,166.598 299.5,166.5C 303.856,169.068 308.522,171.068 313.5,172.5C 319.849,176.341 326.516,179.675 333.5,182.5C 335.336,184.588 337.669,185.921 340.5,186.5C 340.973,187.906 341.973,188.573 343.5,188.5C 345.147,190.326 347.147,191.66 349.5,192.5C 350.768,194.387 352.601,195.387 355,195.5C 359.494,194.834 363.661,193.501 367.5,191.5C 372.052,190.943 376.385,189.943 380.5,188.5C 381.919,187.549 383.585,187.216 385.5,187.5C 390.744,187.118 395.744,186.118 400.5,184.5C 402.265,183.539 404.265,183.205 406.5,183.5C 431.689,179.623 457.023,177.29 482.5,176.5C 529.241,173.817 575.574,176.984 621.5,186C 632.778,188.778 643.945,191.945 655,195.5C 661.01,190.983 666.843,186.317 672.5,181.5C 708.187,158.498 746.854,142.332 788.5,133C 797.267,131.564 805.601,132.73 813.5,136.5 Z"/></g>
<g><path style="opacity:0.029" fill="#dbdbe5" d="M 219.5,143.5 C 239.947,145.88 259.614,150.88 278.5,158.5C 258.854,153.005 239.187,148.005 219.5,143.5 Z"/></g>
<g><path style="opacity:0.416" fill="#d0d1dd" d="M 278.5,158.5 C 282.537,159.065 286.203,160.399 289.5,162.5C 285.463,161.935 281.797,160.601 278.5,158.5 Z"/></g>
<g><path style="opacity:0.029" fill="#e3e3ea" d="M 801.5,155.5 C 801.5,155.833 801.5,156.167 801.5,156.5C 797.896,155.755 794.229,155.922 790.5,157C 779.008,159.665 767.675,162.831 756.5,166.5C 761.872,163.871 767.539,161.704 773.5,160C 782.668,156.728 792.002,155.228 801.5,155.5 Z"/></g>
<g><path style="opacity:0.037" fill="#e6e7ed" d="M 183.5,156.5 C 182.416,159.004 181.083,161.337 179.5,163.5C 179.555,160.386 180.888,158.052 183.5,156.5 Z"/></g>
<g><path style="opacity:0.161" fill="#e3e4ea" d="M 828.5,154.5 C 829.29,155.609 829.79,156.942 830,158.5C 830.938,177.441 829.772,196.108 826.5,214.5C 827.704,199.852 828.704,185.185 829.5,170.5C 829.348,165.146 829.014,159.813 828.5,154.5 Z"/></g>
<g><path style="opacity:0.29" fill="#d9dae3" d="M 289.5,162.5 C 291.553,162.402 293.22,163.069 294.5,164.5C 292.447,164.598 290.78,163.931 289.5,162.5 Z"/></g>
<g><path style="opacity:0.149" fill="#dbdce5" d="M 294.5,164.5 C 296.553,164.402 298.22,165.069 299.5,166.5C 297.447,166.598 295.78,165.931 294.5,164.5 Z"/></g>
<g><path style="opacity:0.063" fill="#e8e9ee" d="M 756.5,166.5 C 755.22,167.931 753.553,168.598 751.5,168.5C 752.78,167.069 754.447,166.402 756.5,166.5 Z"/></g>
<g><path style="opacity:0.051" fill="#e5e6ec" d="M 299.5,166.5 C 304.642,167.542 309.309,169.542 313.5,172.5C 308.522,171.068 303.856,169.068 299.5,166.5 Z"/></g>
<g><path style="opacity:0.251" fill="#d4d4e0" d="M 179.5,163.5 C 179.296,166.518 178.963,169.518 178.5,172.5C 178.167,172.5 177.833,172.5 177.5,172.5C 177.215,169.171 177.882,166.171 179.5,163.5 Z"/></g>
<g><path style="opacity:0.059" fill="#eaebf0" d="M 751.5,168.5 C 747.889,170.931 743.889,172.597 739.5,173.5C 742.983,170.763 746.983,169.097 751.5,168.5 Z"/></g>
<g><path style="opacity:0.045" fill="#f4f4f7" d="M 203.5,170.5 C 203.34,172.153 202.674,173.486 201.5,174.5C 201.229,172.62 201.896,171.287 203.5,170.5 Z"/></g>
<g><path style="opacity:0.149" fill="#dfe0e8" d="M 739.5,173.5 C 737.574,175.293 735.241,176.293 732.5,176.5C 734.426,174.707 736.759,173.707 739.5,173.5 Z"/></g>
<g><path style="opacity:0.029" fill="#cfcfdc" d="M 247.5,174.5 C 250.228,174.171 252.562,174.837 254.5,176.5C 251.848,176.59 249.515,175.924 247.5,174.5 Z"/></g>
<g><path style="opacity:0.114" fill="#e4e5eb" d="M 313.5,172.5 C 320.752,174.793 327.419,178.126 333.5,182.5C 326.516,179.675 319.849,176.341 313.5,172.5 Z"/></g>
<g><path style="opacity:0.037" fill="#ebebf0" d="M 482.5,175.5 C 482.5,175.833 482.5,176.167 482.5,176.5C 457.023,177.29 431.689,179.623 406.5,183.5C 431.425,178.34 456.758,175.673 482.5,175.5 Z"/></g>
<g><path style="opacity:0.033" fill="#dfe0e8" d="M 672.5,181.5 C 666.843,186.317 661.01,190.983 655,195.5C 643.945,191.945 632.778,188.778 621.5,186C 575.574,176.984 529.241,173.817 482.5,176.5C 482.5,176.167 482.5,175.833 482.5,175.5C 529.753,172.303 576.753,175.47 623.5,185C 633.601,187.525 643.601,190.358 653.5,193.5C 659.844,189.483 666.178,185.483 672.5,181.5 Z"/></g>
<g><path style="opacity:0.851" fill="#9a9bb7" d="M 177.5,172.5 C 177.833,172.5 178.167,172.5 178.5,172.5C 178.5,178.5 178.5,184.5 178.5,190.5C 178.167,190.5 177.833,190.5 177.5,190.5C 176.313,184.448 176.313,178.448 177.5,172.5 Z"/></g>
<g><path style="opacity:0.027" fill="#eff0f3" d="M 258.5,177.5 C 261.785,177.928 264.785,178.928 267.5,180.5C 264.084,180.472 261.084,179.472 258.5,177.5 Z"/></g>
<g><path style="opacity:0.051" fill="#eaeaf0" d="M 730.5,177.5 C 729.089,179.539 727.089,180.539 724.5,180.5C 726.181,178.992 728.181,177.992 730.5,177.5 Z"/></g>
<g><path style="opacity:0.029" fill="#ecedf1" d="M 270.5,181.5 C 273.542,181.733 276.208,182.733 278.5,184.5C 275.458,184.267 272.792,183.267 270.5,181.5 Z"/></g>
<g><path style="opacity:0.106" fill="#e1e1e9" d="M 722.5,181.5 C 720.664,183.588 718.331,184.921 715.5,185.5C 717.336,183.412 719.669,182.079 722.5,181.5 Z"/></g>
<g><path style="opacity:0.016" fill="#eaeaef" d="M 333.5,182.5 C 336.331,183.079 338.664,184.412 340.5,186.5C 337.669,185.921 335.336,184.588 333.5,182.5 Z"/></g>
<g><path style="opacity:0.045" fill="#eff0f4" d="M 281.5,185.5 C 283.553,185.402 285.22,186.069 286.5,187.5C 284.447,187.598 282.78,186.931 281.5,185.5 Z"/></g>
<g><path style="opacity:0.016" fill="#eaebf0" d="M 340.5,186.5 C 342.027,186.427 343.027,187.094 343.5,188.5C 341.973,188.573 340.973,187.906 340.5,186.5 Z"/></g>
<g><path style="opacity:0.029" fill="#f0f0f4" d="M 400.5,184.5 C 395.744,186.118 390.744,187.118 385.5,187.5C 390.206,185.625 395.206,184.625 400.5,184.5 Z"/></g>
<g><path style="opacity:0.059" fill="#e8e9ee" d="M 715.5,185.5 C 714.341,187.25 712.674,188.25 710.5,188.5C 711.659,186.75 713.326,185.75 715.5,185.5 Z"/></g>
<g><path style="opacity:0.016" fill="#e0e1e9" d="M 343.5,188.5 C 346.198,188.845 348.198,190.178 349.5,192.5C 347.147,191.66 345.147,190.326 343.5,188.5 Z"/></g>
<g><path style="opacity:0.054" fill="#f2f2f5" d="M 380.5,188.5 C 376.385,189.943 372.052,190.943 367.5,191.5C 371.474,189.425 375.808,188.425 380.5,188.5 Z"/></g>
<g><path style="opacity:0.045" fill="#e7e8ed" d="M 710.5,188.5 C 708.66,190.669 706.326,192.002 703.5,192.5C 705.336,190.412 707.669,189.079 710.5,188.5 Z"/></g>
<g><path style="opacity:0.028" fill="#ececf1" d="M 367.5,191.5 C 363.661,193.501 359.494,194.834 355,195.5C 352.601,195.387 350.768,194.387 349.5,192.5C 351.452,192.995 353.452,193.328 355.5,193.5C 359.51,192.83 363.51,192.163 367.5,191.5 Z"/></g>
<g><path style="opacity:0.024" fill="#f2f2f5" d="M 703.5,192.5 C 703.027,193.906 702.027,194.573 700.5,194.5C 700.973,193.094 701.973,192.427 703.5,192.5 Z"/></g>
<g><path style="opacity:0.114" fill="#e7e8ee" d="M 291.5,189.5 C 300.036,192.103 308.036,195.77 315.5,200.5C 307.203,197.35 299.203,193.683 291.5,189.5 Z"/></g>
<g><path style="opacity:0.024" fill="#f4f5f7" d="M 700.5,194.5 C 700.027,195.906 699.027,196.573 697.5,196.5C 697.973,195.094 698.973,194.427 700.5,194.5 Z"/></g>
<g><path style="opacity:0.024" fill="#f4f4f6" d="M 694.5,198.5 C 694.027,199.906 693.027,200.573 691.5,200.5C 691.973,199.094 692.973,198.427 694.5,198.5 Z"/></g>
<g><path style="opacity:0.161" fill="#d7d9e2" d="M 315.5,200.5 C 317.674,200.75 319.341,201.75 320.5,203.5C 318.326,203.25 316.659,202.25 315.5,200.5 Z"/></g>
<g><path style="opacity:0.024" fill="#efeff3" d="M 691.5,200.5 C 690.738,202.262 689.404,203.262 687.5,203.5C 688.262,201.738 689.596,200.738 691.5,200.5 Z"/></g>
<g><path style="opacity:0.048" fill="#dcdde6" d="M 541.5,199.5 C 494.855,197.93 448.522,200.93 402.5,208.5C 409.907,206.373 417.574,204.873 425.5,204C 464.18,198.751 502.846,197.251 541.5,199.5 Z"/></g>
<g><path style="opacity:0.045" fill="#e7e8ee" d="M 320.5,203.5 C 324.505,204.498 327.839,206.498 330.5,209.5C 326.827,208 323.494,206 320.5,203.5 Z"/></g>
<g><path style="opacity:0.039" fill="#e9e9ef" d="M 687.5,203.5 C 687.027,204.906 686.027,205.573 684.5,205.5C 684.973,204.094 685.973,203.427 687.5,203.5 Z"/></g>
<g><path style="opacity:0.046" fill="#eff0f3" d="M 804.5,196.5 C 804.745,202.084 804.078,207.417 802.5,212.5C 802.527,206.949 803.194,201.616 804.5,196.5 Z"/></g>
<g><path style="opacity:0.044" fill="#e4e5eb" d="M 593.5,204.5 C 597.425,204.43 601.091,205.097 604.5,206.5C 600.575,206.57 596.909,205.903 593.5,204.5 Z"/></g>
<g><path style="opacity:0.949" fill="#8a82aa" d="M 684.5,205.5 C 683.738,207.262 682.404,208.262 680.5,208.5C 681.598,207.603 681.598,206.77 680.5,206C 681.793,205.51 683.127,205.343 684.5,205.5 Z"/></g>
<g><path style="opacity:0.318" fill="#e0e1e8" d="M 330.5,209.5 C 332.404,209.738 333.738,210.738 334.5,212.5C 332.596,212.262 331.262,211.262 330.5,209.5 Z"/></g>
<g><path style="opacity:0.041" fill="#d9dae4" d="M 402.5,208.5 C 392.315,210.96 381.981,213.294 371.5,215.5C 381.414,211.781 391.748,209.448 402.5,208.5 Z"/></g>
<g><path style="opacity:0.996" fill="#080a4c" d="M 813.5,136.5 C 817.122,138.787 820.455,141.453 823.5,144.5C 824.584,147.004 825.917,149.337 827.5,151.5C 828.404,152.209 828.737,153.209 828.5,154.5C 829.014,159.813 829.348,165.146 829.5,170.5C 828.704,185.185 827.704,199.852 826.5,214.5C 826.5,214.833 826.5,215.167 826.5,215.5C 824.292,226.622 822.625,237.955 821.5,249.5C 820.087,252.219 819.42,255.219 819.5,258.5C 817.801,263.634 816.468,268.968 815.5,274.5C 814.349,276.779 813.349,279.112 812.5,281.5C 810.768,280.052 808.768,279.218 806.5,279C 807.308,278.692 807.975,278.192 808.5,277.5C 805.539,271.791 807.206,270.124 813.5,272.5C 813.33,271.178 813.663,270.011 814.5,269C 812.193,268.221 810.193,268.721 808.5,270.5C 808.167,269.667 807.833,268.833 807.5,268C 808.257,265.62 809.591,263.62 811.5,262C 810.352,260.274 809.185,260.441 808,262.5C 807.833,262 807.667,261.5 807.5,261C 808.783,259.864 809.783,258.531 810.5,257C 810.167,256.5 809.833,256 809.5,255.5C 808.713,256.242 808.047,257.075 807.5,258C 806.668,258.688 806.002,258.521 805.5,257.5C 806.833,255.833 808.167,254.167 809.5,252.5C 810.614,251.277 810.781,249.944 810,248.5C 807.012,251.323 804.178,254.323 801.5,257.5C 800.52,256.019 799.353,254.685 798,253.5C 797.578,255.426 796.411,256.426 794.5,256.5C 798.373,242.06 801.039,227.393 802.5,212.5C 804.078,207.417 804.745,202.084 804.5,196.5C 805.41,184.511 805.576,172.511 805,160.5C 804.31,158.65 803.144,157.316 801.5,156.5C 801.5,156.167 801.5,155.833 801.5,155.5C 803.377,155.1 804.877,154.1 806,152.5C 807.722,152.611 807.888,153.111 806.5,154C 808.101,154.273 809.601,154.773 811,155.5C 813.491,159.685 812.324,162.185 807.5,163C 808.402,165.202 809.402,167.368 810.5,169.5C 810.153,167.86 810.653,166.193 812,164.5C 812.333,166.167 812.667,167.833 813,169.5C 814.432,166.998 814.598,164.498 813.5,162C 815.131,159.843 815.631,157.343 815,154.5C 815.471,156.246 816.138,157.913 817,159.5C 818,157.5 819,155.5 820,153.5C 820.654,152.304 821.154,152.304 821.5,153.5C 822.108,155.684 821.441,157.684 819.5,159.5C 820.167,164.167 820.833,168.833 821.5,173.5C 820.926,176.177 820.259,178.843 819.5,181.5C 818.914,181.291 818.414,180.957 818,180.5C 817.588,182.997 816.422,184.997 814.5,186.5C 814.167,186 813.833,185.5 813.5,185C 816.016,177.955 815.35,177.788 811.5,184.5C 812.833,187.833 812.833,191.167 811.5,194.5C 813.994,197.08 813.994,199.747 811.5,202.5C 812.833,204.833 812.833,207.167 811.5,209.5C 813.922,211.94 813.922,214.274 811.5,216.5C 811.833,216.833 812.167,217.167 812.5,217.5C 813.648,215.851 814.981,214.351 816.5,213C 815.106,212.044 814.439,210.711 814.5,209C 814.67,203.737 814.67,198.403 814.5,193C 814.542,191.033 815.042,189.199 816,187.5C 816.666,191.131 817.166,194.464 817.5,197.5C 818.081,194.625 819.081,191.958 820.5,189.5C 822.755,192.995 825.088,193.162 827.5,190C 826.299,189.097 825.465,187.931 825,186.5C 824.333,187.167 823.667,187.833 823,188.5C 821.644,187.62 820.144,187.286 818.5,187.5C 818.378,184.743 819.545,182.743 822,181.5C 822.211,175.782 822.711,170.115 823.5,164.5C 822.926,162.941 822.26,161.441 821.5,160C 822.833,158 824.167,158 825.5,160C 824.801,163.8 824.135,167.633 823.5,171.5C 825.023,174.188 826.357,174.022 827.5,171C 827.384,169.732 827.051,168.398 826.5,167C 827.308,166.692 827.975,166.192 828.5,165.5C 827.35,162.193 826.017,159.026 824.5,156C 824.327,153.74 824.327,151.407 824.5,149C 822.153,148.154 820.32,146.654 819,144.5C 818.692,145.308 818.192,145.975 817.5,146.5C 814.656,144.771 814.322,142.938 816.5,141C 814.9,139.877 813.9,138.377 813.5,136.5 Z"/></g>
<g><path style="opacity:0.029" fill="#ccccda" d="M 622.5,210.5 C 625.228,210.171 627.562,210.837 629.5,212.5C 626.848,212.59 624.515,211.924 622.5,210.5 Z"/></g>
<g><path style="opacity:0.918" fill="#9f9fb8" d="M 629.5,212.5 C 632.228,212.171 634.562,212.837 636.5,214.5C 633.933,214.279 631.599,213.612 629.5,212.5 Z"/></g>
<g><path style="opacity:0.235" fill="#e9eaee" d="M 334.5,212.5 C 336.027,212.427 337.027,213.094 337.5,214.5C 335.973,214.573 334.973,213.906 334.5,212.5 Z"/></g>
<g><path style="opacity:0.047" fill="#ebebf0" d="M 678.5,210.5 C 676.71,212.272 675.377,214.272 674.5,216.5C 674.5,215.5 674.5,214.5 674.5,213.5C 675.262,211.738 676.596,210.738 678.5,210.5 Z"/></g>
<g><path style="opacity:0.251" fill="#e2e2e9" d="M 337.5,214.5 C 340.603,216.423 343.603,218.59 346.5,221C 349.192,221.43 351.859,221.263 354.5,220.5C 352.312,222.755 349.646,223.589 346.5,223C 343,220.666 340,217.832 337.5,214.5 Z"/></g>
<g><path style="opacity:0.037" fill="#ecedf1" d="M 371.5,215.5 C 366.153,217.924 360.487,219.591 354.5,220.5C 359.847,218.076 365.513,216.409 371.5,215.5 Z"/></g>
<g><path style="opacity:0.037" fill="#f0f0f4" d="M 648.5,218.5 C 650.553,218.402 652.22,219.069 653.5,220.5C 651.447,220.598 649.78,219.931 648.5,218.5 Z"/></g>
<g><path style="opacity:0.039" fill="#dcdce5" d="M 826.5,215.5 C 825.895,227.118 824.228,238.451 821.5,249.5C 822.625,237.955 824.292,226.622 826.5,215.5 Z"/></g>
<g><path style="opacity:0.851" fill="#77789e" d="M 674.5,213.5 C 674.5,214.5 674.5,215.5 674.5,216.5C 675.107,220.955 675.107,224.955 674.5,228.5C 674.167,228.5 673.833,228.5 673.5,228.5C 673.179,223.305 673.513,218.305 674.5,213.5 Z"/></g>
<g><path style="opacity:0.051" fill="#eaebf0" d="M 656.5,221.5 C 659.241,221.707 661.574,222.707 663.5,224.5C 660.759,224.293 658.426,223.293 656.5,221.5 Z"/></g>
<g><path style="opacity:0.29" fill="#dadbe4" d="M 177.5,190.5 C 177.833,190.5 178.167,190.5 178.5,190.5C 180.032,222.227 184.366,253.561 191.5,284.5C 183.175,253.866 178.508,222.532 177.5,190.5 Z"/></g>
<g><path style="opacity:0.161" fill="#e9eaef" d="M 665.5,225.5 C 668.143,226.454 670.81,227.454 673.5,228.5C 673.833,228.5 674.167,228.5 674.5,228.5C 674.631,229.239 674.464,229.906 674,230.5C 670.724,229.45 667.89,227.784 665.5,225.5 Z"/></g>
<g><path style="opacity:0.033" fill="#e9e9ef" d="M 802.5,212.5 C 801.039,227.393 798.373,242.06 794.5,256.5C 791.53,269.414 787.197,281.747 781.5,293.5C 791.183,267.097 798.183,240.097 802.5,212.5 Z"/></g>
<g><path style="opacity:0.027" fill="#e2e3ea" d="M 206.5,244.5 C 208.118,249.256 209.118,254.256 209.5,259.5C 207.625,254.794 206.625,249.794 206.5,244.5 Z"/></g>
<g><path style="opacity:0.029" fill="#e4e4ea" d="M 821.5,249.5 C 821.58,252.781 820.913,255.781 819.5,258.5C 819.42,255.219 820.087,252.219 821.5,249.5 Z"/></g>
<g><path style="opacity:0.996" fill="#0b0a50" d="M 812.5,281.5 C 812.5,282.833 812.5,284.167 812.5,285.5C 812.598,287.553 811.931,289.22 810.5,290.5C 808.792,293.95 807.459,297.617 806.5,301.5C 805.069,302.78 804.402,304.447 804.5,306.5C 804.008,308.819 803.008,310.819 801.5,312.5C 800.147,314.128 800.481,315.462 802.5,316.5C 803.338,316.842 803.672,317.508 803.5,318.5C 803.75,320.674 804.75,322.341 806.5,323.5C 807.338,323.842 807.672,324.508 807.5,325.5C 807.75,327.674 808.75,329.341 810.5,330.5C 811.674,331.514 812.34,332.847 812.5,334.5C 812.707,337.241 813.707,339.574 815.5,341.5C 816.674,342.514 817.34,343.847 817.5,345.5C 817.402,347.553 818.069,349.22 819.5,350.5C 819.98,353.443 820.98,356.11 822.5,358.5C 823.065,362.537 824.399,366.203 826.5,369.5C 827.738,371.214 828.405,373.214 828.5,375.5C 828.41,378.152 829.076,380.485 830.5,382.5C 831.451,383.919 831.784,385.585 831.5,387.5C 831.5,389.167 831.5,390.833 831.5,392.5C 831.723,395.966 830.389,396.966 827.5,395.5C 825.303,395.848 823.47,396.848 822,398.5C 821.585,396.709 820.585,395.376 819,394.5C 818.517,395.448 818.351,396.448 818.5,397.5C 816.857,397.48 815.524,398.147 814.5,399.5C 814.167,399 813.833,398.5 813.5,398C 815.407,396.925 817.407,395.258 819.5,393C 818.007,391.632 816.507,391.465 815,392.5C 815.234,389.599 814.901,386.599 814,383.5C 812.667,384.167 811.333,384.833 810,385.5C 809.316,386.784 809.483,387.951 810.5,389C 809.906,389.464 809.239,389.631 808.5,389.5C 807.795,386.646 806.795,383.979 805.5,381.5C 803.462,377.06 801.796,372.393 800.5,367.5C 800.267,364.458 799.267,361.792 797.5,359.5C 796.662,359.158 796.328,358.492 796.5,357.5C 796.598,355.447 795.931,353.78 794.5,352.5C 790.992,346.818 787.992,340.818 785.5,334.5C 785.25,332.326 784.25,330.659 782.5,329.5C 780.917,327.337 779.584,325.004 778.5,322.5C 778.573,320.973 777.906,319.973 776.5,319.5C 776.573,317.973 775.906,316.973 774.5,316.5C 773.662,316.158 773.328,315.492 773.5,314.5C 773.624,310.588 774.624,306.921 776.5,303.5C 776.328,302.508 776.662,301.842 777.5,301.5C 779.873,299.421 781.206,296.754 781.5,293.5C 787.197,281.747 791.53,269.414 794.5,256.5C 796.411,256.426 797.578,255.426 798,253.5C 799.353,254.685 800.52,256.019 801.5,257.5C 804.178,254.323 807.012,251.323 810,248.5C 810.781,249.944 810.614,251.277 809.5,252.5C 808.167,254.167 806.833,255.833 805.5,257.5C 806.002,258.521 806.668,258.688 807.5,258C 808.047,257.075 808.713,256.242 809.5,255.5C 809.833,256 810.167,256.5 810.5,257C 809.783,258.531 808.783,259.864 807.5,261C 807.667,261.5 807.833,262 808,262.5C 809.185,260.441 810.352,260.274 811.5,262C 809.591,263.62 808.257,265.62 807.5,268C 807.833,268.833 808.167,269.667 808.5,270.5C 810.193,268.721 812.193,268.221 814.5,269C 813.663,270.011 813.33,271.178 813.5,272.5C 807.206,270.124 805.539,271.791 808.5,277.5C 807.975,278.192 807.308,278.692 806.5,279C 808.768,279.218 810.768,280.052 812.5,281.5 Z"/></g>
<g><path style="opacity:0.044" fill="#e3e3ea" d="M 819.5,258.5 C 819.293,264.225 817.96,269.559 815.5,274.5C 816.468,268.968 817.801,263.634 819.5,258.5 Z"/></g>
<g><path style="opacity:0.871" fill="#aaaac0" d="M 210.5,264.5 C 211.924,266.515 212.59,268.848 212.5,271.5C 210.837,269.562 210.171,267.228 210.5,264.5 Z"/></g>
<g><path style="opacity:0.041" fill="#dddde6" d="M 815.5,274.5 C 815.258,278.479 814.258,282.146 812.5,285.5C 812.5,284.167 812.5,282.833 812.5,281.5C 813.349,279.112 814.349,276.779 815.5,274.5 Z"/></g>
<g><path style="opacity:0.027" fill="#dedfe7" d="M 192.5,287.5 C 194.405,291.216 195.739,295.216 196.5,299.5C 194.065,295.942 192.732,291.942 192.5,287.5 Z"/></g>
<g><path style="opacity:0.125" fill="#dddee6" d="M 218.5,289.5 C 219.931,290.78 220.598,292.447 220.5,294.5C 219.069,293.22 218.402,291.553 218.5,289.5 Z"/></g>
<g><path style="opacity:0.049" fill="#e4e5ec" d="M 810.5,290.5 C 810.333,294.673 809,298.34 806.5,301.5C 807.459,297.617 808.792,293.95 810.5,290.5 Z"/></g>
<g><path style="opacity:0.161" fill="#e0e1e9" d="M 221.5,296.5 C 222.906,296.973 223.573,297.973 223.5,299.5C 222.094,299.027 221.427,298.027 221.5,296.5 Z"/></g>
<g><path style="opacity:0.2" fill="#dadae4" d="M 781.5,293.5 C 781.206,296.754 779.873,299.421 777.5,301.5C 778.326,298.515 779.659,295.849 781.5,293.5 Z"/></g>
<g><path style="opacity:0.149" fill="#eaebef" d="M 223.5,299.5 C 224.906,299.973 225.573,300.973 225.5,302.5C 224.094,302.027 223.427,301.027 223.5,299.5 Z"/></g>
<g><path style="opacity:0.051" fill="#e3e4eb" d="M 806.5,301.5 C 806.598,303.553 805.931,305.22 804.5,306.5C 804.402,304.447 805.069,302.78 806.5,301.5 Z"/></g>
<g><path style="opacity:0.235" fill="#e6e7ec" d="M 225.5,302.5 C 227.262,303.262 228.262,304.596 228.5,306.5C 226.738,305.738 225.738,304.404 225.5,302.5 Z"/></g>
<g><path style="opacity:0.051" fill="#e4e5eb" d="M 196.5,299.5 C 199.403,304.977 202.07,310.643 204.5,316.5C 200.515,311.527 197.848,305.86 196.5,299.5 Z"/></g>
<g><path style="opacity:0.137" fill="#dcdde5" d="M 776.5,303.5 C 774.624,306.921 773.624,310.588 773.5,314.5C 772.522,314.189 771.855,313.522 771.5,312.5C 772.42,308.985 774.087,305.985 776.5,303.5 Z"/></g>
<g><path style="opacity:0.318" fill="#e3e4ea" d="M 228.5,306.5 C 230.587,307.585 231.92,309.251 232.5,311.5C 230.413,310.415 229.08,308.749 228.5,306.5 Z"/></g>
<g><path style="opacity:0.016" fill="#ebebf0" d="M 233.5,313.5 C 233.5,313.167 233.5,312.833 233.5,312.5C 236.938,314.759 240.271,317.259 243.5,320C 244.823,320.816 245.489,321.983 245.5,323.5C 245.167,323.5 244.833,323.5 244.5,323.5C 240.859,320.195 237.192,316.862 233.5,313.5 Z"/></g>
<g><path style="opacity:0.029" fill="#f0f1f4" d="M 801.5,312.5 C 802.234,313.708 802.567,315.041 802.5,316.5C 800.481,315.462 800.147,314.128 801.5,312.5 Z"/></g>
<g><path style="opacity:0.016" fill="#f1f2f4" d="M 774.5,316.5 C 775.906,316.973 776.573,317.973 776.5,319.5C 775.094,319.027 774.427,318.027 774.5,316.5 Z"/></g>
<g><path style="opacity:0.337" fill="#dfe0e7" d="M 204.5,316.5 C 206.326,318.147 207.66,320.147 208.5,322.5C 206.178,321.198 204.845,319.198 204.5,316.5 Z"/></g>
<g><path style="opacity:0.016" fill="#ebebf0" d="M 776.5,319.5 C 777.906,319.973 778.573,320.973 778.5,322.5C 777.094,322.027 776.427,321.027 776.5,319.5 Z"/></g>
<g><path style="opacity:0.149" fill="#dcdde5" d="M 803.5,318.5 C 805.25,319.659 806.25,321.326 806.5,323.5C 804.75,322.341 803.75,320.674 803.5,318.5 Z"/></g>
<g><path style="opacity:0.043" fill="#e2e3e9" d="M 208.5,322.5 C 209.906,322.973 210.573,323.973 210.5,325.5C 209.094,325.027 208.427,324.027 208.5,322.5 Z"/></g>
<g><path style="opacity:0.016" fill="#d7d8e2" d="M 211.5,326.5 C 213.262,327.262 214.262,328.596 214.5,330.5C 212.738,329.738 211.738,328.404 211.5,326.5 Z"/></g>
<g><path style="opacity:0.137" fill="#dcdde5" d="M 807.5,325.5 C 809.25,326.659 810.25,328.326 810.5,330.5C 808.75,329.341 807.75,327.674 807.5,325.5 Z"/></g>
<g><path style="opacity:0.192" fill="#d5d6e1" d="M 782.5,329.5 C 784.25,330.659 785.25,332.326 785.5,334.5C 783.75,333.341 782.75,331.674 782.5,329.5 Z"/></g>
<g><path style="opacity:0.161" fill="#e2e3e9" d="M 812.5,334.5 C 814.293,336.426 815.293,338.759 815.5,341.5C 813.707,339.574 812.707,337.241 812.5,334.5 Z"/></g>
<g><path style="opacity:0.032" fill="#fefefe" d="M 215.5,331.5 C 217.5,333.167 219.5,334.833 221.5,336.5C 221.5,510.167 221.5,683.833 221.5,857.5C 220.667,684.334 220.167,511 220,337.5C 217.873,335.886 216.373,333.886 215.5,331.5 Z"/></g>
<g><path style="opacity:0.051" fill="#e9eaee" d="M 817.5,345.5 C 818.931,346.78 819.598,348.447 819.5,350.5C 818.069,349.22 817.402,347.553 817.5,345.5 Z"/></g>
<g><path style="opacity:0.064" fill="#f8f9fa" d="M 400.5,353.5 C 455.665,352.335 510.998,352.168 566.5,353C 575.264,353.517 583.598,355.35 591.5,358.5C 590.167,358.5 588.833,358.5 587.5,358.5C 580.497,356.05 573.164,354.55 565.5,354C 510.501,353.5 455.501,353.333 400.5,353.5 Z"/></g>
<g><path style="opacity:0.125" fill="#d8d9e2" d="M 794.5,352.5 C 795.931,353.78 796.598,355.447 796.5,357.5C 795.069,356.22 794.402,354.553 794.5,352.5 Z"/></g>
<g><path style="opacity:0.996" fill="#191855" d="M 400.5,353.5 C 455.501,353.333 510.501,353.5 565.5,354C 573.164,354.55 580.497,356.05 587.5,358.5C 585.275,359.751 583.109,359.418 581,357.5C 577.83,357.312 574.497,357.645 571,358.5C 567.022,356.943 562.855,356.11 558.5,356C 549.5,355.833 540.5,355.667 531.5,355.5C 494.687,355.875 458.021,355.875 421.5,355.5C 416.819,356.504 412.153,357.504 407.5,358.5C 407.822,360.722 407.155,362.556 405.5,364C 405.833,364.333 406.167,364.667 406.5,365C 405.333,366.167 404.167,367.333 403,368.5C 402.667,372.167 402.333,375.833 402,379.5C 401.5,430.832 401.333,482.166 401.5,533.5C 400.501,473.669 400.168,413.669 400.5,353.5 Z"/></g>
<g><path style="opacity:0.029" fill="#edeef2" d="M 819.5,350.5 C 821.585,352.684 822.585,355.351 822.5,358.5C 820.98,356.11 819.98,353.443 819.5,350.5 Z"/></g>
<g><path style="opacity:0.996" fill="#05074e" d="M 587.5,358.5 C 588.833,358.5 590.167,358.5 591.5,358.5C 592.791,358.263 593.791,358.596 594.5,359.5C 596.426,361.293 598.759,362.293 601.5,362.5C 603.153,362.66 604.486,363.326 605.5,364.5C 609.819,367.996 614.485,370.996 619.5,373.5C 620.167,373.5 620.5,373.833 620.5,374.5C 621.262,376.262 622.596,377.262 624.5,377.5C 625.833,378.167 626.833,379.167 627.5,380.5C 629.5,383.167 631.833,385.5 634.5,387.5C 635.5,387.833 636.167,388.5 636.5,389.5C 636.738,391.404 637.738,392.738 639.5,393.5C 639.738,395.404 640.738,396.738 642.5,397.5C 642.738,399.404 643.738,400.738 645.5,401.5C 646.338,401.842 646.672,402.508 646.5,403.5C 646.427,405.027 647.094,406.027 648.5,406.5C 650.008,408.181 651.008,410.181 651.5,412.5C 651.402,414.553 652.069,416.22 653.5,417.5C 657.363,425.627 659.363,434.294 659.5,443.5C 659.587,452.188 659.253,460.854 658.5,469.5C 658.5,469.833 658.5,470.167 658.5,470.5C 657.087,473.219 656.42,476.219 656.5,479.5C 654.484,487.196 651.15,494.196 646.5,500.5C 645.094,500.973 644.427,501.973 644.5,503.5C 644.167,504.5 643.5,505.167 642.5,505.5C 641.094,505.973 640.427,506.973 640.5,508.5C 639.833,509.833 638.833,510.833 637.5,511.5C 636.5,511.833 635.833,512.5 635.5,513.5C 635.5,514.167 635.167,514.5 634.5,514.5C 633.167,515.167 632.167,516.167 631.5,517.5C 631.167,518.5 630.5,519.167 629.5,519.5C 627.973,519.427 626.973,520.094 626.5,521.5C 624.973,521.427 623.973,522.094 623.5,523.5C 621.973,523.427 620.973,524.094 620.5,525.5C 617.878,527.644 614.878,528.977 611.5,529.5C 606.354,530.701 601.354,532.035 596.5,533.5C 531.5,533.5 466.5,533.5 401.5,533.5C 401.333,482.166 401.5,430.832 402,379.5C 402.333,375.833 402.667,372.167 403,368.5C 404.167,367.333 405.333,366.167 406.5,365C 406.167,364.667 405.833,364.333 405.5,364C 407.155,362.556 407.822,360.722 407.5,358.5C 412.153,357.504 416.819,356.504 421.5,355.5C 458.021,355.875 494.687,355.875 531.5,355.5C 540.5,355.667 549.5,355.833 558.5,356C 562.855,356.11 567.022,356.943 571,358.5C 574.497,357.645 577.83,357.312 581,357.5C 583.109,359.418 585.275,359.751 587.5,358.5 Z M 426.5,377.5 C 471.168,377.333 515.835,377.5 560.5,378C 569.402,378.227 578.069,379.727 586.5,382.5C 588.426,384.293 590.759,385.293 593.5,385.5C 593.842,386.338 594.508,386.672 595.5,386.5C 595.973,387.906 596.973,388.573 598.5,388.5C 598.842,389.338 599.508,389.672 600.5,389.5C 600.973,390.906 601.973,391.573 603.5,391.5C 604.262,393.262 605.596,394.262 607.5,394.5C 609.9,397.903 612.9,400.57 616.5,402.5C 617.08,404.749 618.413,406.415 620.5,407.5C 621.433,410.37 623.1,412.704 625.5,414.5C 626.304,417.442 627.638,420.109 629.5,422.5C 629.402,424.553 630.069,426.22 631.5,427.5C 631.595,429.786 632.262,431.786 633.5,433.5C 640.128,459.505 633.794,481.672 614.5,500C 609.232,503.132 603.899,505.965 598.5,508.5C 596.585,508.216 594.919,508.549 593.5,509.5C 537.167,509.5 480.833,509.5 424.5,509.5C 423.847,465.281 424.514,421.281 426.5,377.5 Z"/></g>
<g><path style="opacity:0.235" fill="#dadbe5" d="M 594.5,359.5 C 597.241,359.707 599.574,360.707 601.5,362.5C 598.759,362.293 596.426,361.293 594.5,359.5 Z"/></g>
<g><path style="opacity:0.125" fill="#e1e2e9" d="M 797.5,359.5 C 799.267,361.792 800.267,364.458 800.5,367.5C 798.733,365.208 797.733,362.542 797.5,359.5 Z"/></g>
<g><path style="opacity:0.027" fill="#ebecf0" d="M 822.5,358.5 C 824.642,361.8 825.975,365.467 826.5,369.5C 824.399,366.203 823.065,362.537 822.5,358.5 Z"/></g>
<g><path style="opacity:0.016" fill="#e2e3ea" d="M 605.5,364.5 C 610.855,366.506 615.521,369.506 619.5,373.5C 614.485,370.996 609.819,367.996 605.5,364.5 Z"/></g>
<g><path style="opacity:0.016" fill="#e4e5eb" d="M 620.5,374.5 C 622.404,374.738 623.738,375.738 624.5,377.5C 622.596,377.262 621.262,376.262 620.5,374.5 Z"/></g>
<g><path style="opacity:0.041" fill="#eeeef2" d="M 828.5,375.5 C 829.924,377.515 830.59,379.848 830.5,382.5C 829.076,380.485 828.41,378.152 828.5,375.5 Z"/></g>
<g><path style="opacity:0.016" fill="#ebecf0" d="M 627.5,380.5 C 630.833,381.833 633.167,384.167 634.5,387.5C 631.833,385.5 629.5,383.167 627.5,380.5 Z"/></g>
<g><path style="opacity:0.055" fill="#eeeef2" d="M 586.5,382.5 C 589.241,382.707 591.574,383.707 593.5,385.5C 590.759,385.293 588.426,384.293 586.5,382.5 Z"/></g>
<g><path style="opacity:0.045" fill="#dedee7" d="M 805.5,381.5 C 806.795,383.979 807.795,386.646 808.5,389.5C 808.5,390.5 808.5,391.5 808.5,392.5C 806.742,389.146 805.742,385.479 805.5,381.5 Z"/></g>
<g><path style="opacity:0.176" fill="#e8e8ed" d="M 595.5,386.5 C 597.027,386.427 598.027,387.094 598.5,388.5C 596.973,388.573 595.973,387.906 595.5,386.5 Z"/></g>
<g><path style="opacity:0.251" fill="#e2e3e9" d="M 600.5,389.5 C 602.027,389.427 603.027,390.094 603.5,391.5C 601.973,391.573 600.973,390.906 600.5,389.5 Z"/></g>
<g><path style="opacity:0.58" fill="#b4b5c9" d="M 636.5,389.5 C 638.262,390.262 639.262,391.596 639.5,393.5C 637.738,392.738 636.738,391.404 636.5,389.5 Z"/></g>
<g><path style="opacity:0.871" fill="#a8a7be" d="M 831.5,387.5 C 833.04,389.838 833.706,392.505 833.5,395.5C 832.833,394.5 832.167,393.5 831.5,392.5C 831.5,390.833 831.5,389.167 831.5,387.5 Z"/></g>
<g><path style="opacity:0.416" fill="#d4d5e0" d="M 603.5,391.5 C 605.404,391.738 606.738,392.738 607.5,394.5C 605.596,394.262 604.262,393.262 603.5,391.5 Z"/></g>
<g><path style="opacity:0.678" fill="#a4a5bc" d="M 639.5,393.5 C 641.262,394.262 642.262,395.596 642.5,397.5C 640.738,396.738 639.738,395.404 639.5,393.5 Z"/></g>
<g><path style="opacity:0.337" fill="#dbdce5" d="M 607.5,394.5 C 611.1,396.43 614.1,399.097 616.5,402.5C 612.9,400.57 609.9,397.903 607.5,394.5 Z"/></g>
<g><path style="opacity:0.42" fill="#c9cad7" d="M 642.5,397.5 C 644.262,398.262 645.262,399.596 645.5,401.5C 643.738,400.738 642.738,399.404 642.5,397.5 Z"/></g>
<g><path style="opacity:0.016" fill="#d5d6e1" d="M 616.5,402.5 C 618.587,403.585 619.92,405.251 620.5,407.5C 618.413,406.415 617.08,404.749 616.5,402.5 Z"/></g>
<g><path style="opacity:0.029" fill="#e9eaef" d="M 809.5,396.5 C 811.011,399.544 811.678,402.878 811.5,406.5C 810.215,403.411 809.549,400.078 809.5,396.5 Z"/></g>
<g><path style="opacity:0.149" fill="#e3e3ea" d="M 646.5,403.5 C 647.906,403.973 648.573,404.973 648.5,406.5C 647.094,406.027 646.427,405.027 646.5,403.5 Z"/></g>
<g><path style="opacity:0.042" fill="#e7e8ed" d="M 835.5,405.5 C 837.322,411.574 838.322,417.907 838.5,424.5C 836.864,418.397 835.864,412.064 835.5,405.5 Z"/></g>
<g><path style="opacity:0.016" fill="#e4e5eb" d="M 620.5,407.5 C 622.9,409.296 624.567,411.63 625.5,414.5C 623.1,412.704 621.433,410.37 620.5,407.5 Z"/></g>
<g><path style="opacity:0.318" fill="#d0d1dd" d="M 811.5,406.5 C 812.167,407.833 812.833,409.167 813.5,410.5C 814.662,419.795 815.328,429.128 815.5,438.5C 813.961,427.998 812.628,417.332 811.5,406.5 Z"/></g>
<g><path style="opacity:0.045" fill="#eaeaf0" d="M 651.5,412.5 C 652.931,413.78 653.598,415.447 653.5,417.5C 652.069,416.22 651.402,414.553 651.5,412.5 Z"/></g>
<g><path style="opacity:0.161" fill="#dbdbe5" d="M 625.5,414.5 C 627.873,416.579 629.206,419.246 629.5,422.5C 627.638,420.109 626.304,417.442 625.5,414.5 Z"/></g>
<g><path style="opacity:0.049" fill="#ebebf0" d="M 629.5,422.5 C 630.931,423.78 631.598,425.447 631.5,427.5C 630.069,426.22 629.402,424.553 629.5,422.5 Z"/></g>
<g><path style="opacity:0.353" fill="#d2d3df" d="M 631.5,427.5 C 633.074,429.102 633.741,431.102 633.5,433.5C 632.262,431.786 631.595,429.786 631.5,427.5 Z"/></g>
<g><path style="opacity:0.996" fill="#00034b" d="M 816.5,467.5 C 816.827,457.652 816.494,447.986 815.5,438.5C 815.328,429.128 814.662,419.795 813.5,410.5C 813.898,408.91 814.398,406.91 815,404.5C 816.268,402.283 817.768,400.283 819.5,398.5C 820.5,399.167 821.5,399.833 822.5,400.5C 825.833,399.167 829.167,399.167 832.5,400.5C 833.833,401.833 833.833,403.167 832.5,404.5C 830.674,404.92 828.674,404.92 826.5,404.5C 826.67,405.822 826.337,406.989 825.5,408C 827.811,407.845 830.144,407.845 832.5,408C 833.09,409.509 833.756,411.009 834.5,412.5C 835.325,417.203 835.325,421.703 834.5,426C 835.691,429.578 836.691,433.245 837.5,437C 837.494,448.678 837.494,460.345 837.5,472C 835.946,474.224 834.946,476.724 834.5,479.5C 835.646,485.538 835.313,491.538 833.5,497.5C 831.042,496.081 828.375,495.081 825.5,494.5C 823.561,492.878 823.228,491.044 824.5,489C 822.575,487.405 820.575,487.238 818.5,488.5C 818.239,481.441 817.573,474.441 816.5,467.5 Z"/></g>
<g><path style="opacity:0.052" fill="#ebebf0" d="M 659.5,443.5 C 660.165,446.649 660.498,449.982 660.5,453.5C 660.632,459.077 659.965,464.41 658.5,469.5C 659.253,460.854 659.587,452.188 659.5,443.5 Z"/></g>
<g><path style="opacity:0.053" fill="#eeeff3" d="M 633.5,433.5 C 641.34,459.637 635.34,482.137 615.5,501C 610.285,504.609 604.619,507.109 598.5,508.5C 603.899,505.965 609.232,503.132 614.5,500C 633.794,481.672 640.128,459.505 633.5,433.5 Z"/></g>
<g><path style="opacity:0.037" fill="#d9d9e3" d="M 658.5,470.5 C 658.58,473.781 657.913,476.781 656.5,479.5C 656.42,476.219 657.087,473.219 658.5,470.5 Z"/></g>
<g><path style="opacity:0.038" fill="#e5e6ec" d="M 815.5,438.5 C 816.494,447.986 816.827,457.652 816.5,467.5C 816.154,477.378 815.154,487.045 813.5,496.5C 815.092,477.206 815.758,457.872 815.5,438.5 Z"/></g>
<g><path style="opacity:0.039" fill="#e5e5ec" d="M 839.5,445.5 C 840.657,453.656 840.823,461.99 840,470.5C 839.65,482.398 838.483,494.065 836.5,505.5C 838.282,485.542 839.282,465.542 839.5,445.5 Z"/></g>
<g><path style="opacity:0.29" fill="#e1e2e8" d="M 426.5,377.5 C 424.514,421.281 423.847,465.281 424.5,509.5C 480.833,509.5 537.167,509.5 593.5,509.5C 537.002,510.499 480.336,510.832 423.5,510.5C 423.5,466.167 423.5,421.833 423.5,377.5C 424.5,377.5 425.5,377.5 426.5,377.5 Z"/></g>
<g><path style="opacity:0.016" fill="#ecedf1" d="M 646.5,500.5 C 646.573,502.027 645.906,503.027 644.5,503.5C 644.427,501.973 645.094,500.973 646.5,500.5 Z"/></g>
<g><path style="opacity:0.024" fill="#d8d9e3" d="M 642.5,505.5 C 642.573,507.027 641.906,508.027 640.5,508.5C 640.427,506.973 641.094,505.973 642.5,505.5 Z"/></g>
<g><path style="opacity:0.235" fill="#e2e3ea" d="M 813.5,496.5 C 813.771,501.434 813.104,506.1 811.5,510.5C 811.69,505.63 812.356,500.964 813.5,496.5 Z"/></g>
<g><path style="opacity:0.016" fill="#e5e6ec" d="M 637.5,511.5 C 637.5,512.833 636.833,513.5 635.5,513.5C 635.833,512.5 636.5,511.833 637.5,511.5 Z"/></g>
<g><path style="opacity:0.161" fill="#d8d9e2" d="M 836.5,505.5 C 836.57,509.425 835.903,513.091 834.5,516.5C 834.43,512.575 835.097,508.909 836.5,505.5 Z"/></g>
<g><path style="opacity:0.016" fill="#f4f4f6" d="M 634.5,514.5 C 634.5,516.5 633.5,517.5 631.5,517.5C 632.167,516.167 633.167,515.167 634.5,514.5 Z"/></g>
<g><path style="opacity:0.016" fill="#f2f2f5" d="M 629.5,519.5 C 629.027,520.906 628.027,521.573 626.5,521.5C 626.973,520.094 627.973,519.427 629.5,519.5 Z"/></g>
<g><path style="opacity:0.016" fill="#e8e8ee" d="M 626.5,521.5 C 626.027,522.906 625.027,523.573 623.5,523.5C 623.973,522.094 624.973,521.427 626.5,521.5 Z"/></g>
<g><path style="opacity:0.024" fill="#eeeff3" d="M 623.5,523.5 C 623.027,524.906 622.027,525.573 620.5,525.5C 620.973,524.094 621.973,523.427 623.5,523.5 Z"/></g>
<g><path style="opacity:0.055" fill="#d5d6e0" d="M 833.5,522.5 C 833.435,525.428 832.768,528.095 831.5,530.5C 831.294,527.505 831.96,524.838 833.5,522.5 Z"/></g>
<g><path style="opacity:0.038" fill="#ebecf0" d="M 809.5,519.5 C 809.245,523.8 808.245,527.8 806.5,531.5C 806.584,527.163 807.584,523.163 809.5,519.5 Z"/></g>
<g><path style="opacity:0.029" fill="#e0e1e9" d="M 611.5,529.5 C 606.977,532.216 601.977,533.549 596.5,533.5C 601.354,532.035 606.354,530.701 611.5,529.5 Z"/></g>
<g><path style="opacity:0.678" fill="#b3b4c7" d="M 400.5,353.5 C 400.168,413.669 400.501,473.669 401.5,533.5C 466.5,533.5 531.5,533.5 596.5,533.5C 575.834,534.349 555.001,535.015 534,535.5C 489.436,535.251 444.936,535.084 400.5,535C 399.167,474.402 399.167,413.902 400.5,353.5 Z"/></g>
<g><path style="opacity:0.027" fill="#f0f1f4" d="M 804.5,538.5 C 804.405,540.786 803.738,542.786 802.5,544.5C 802.259,542.102 802.926,540.102 804.5,538.5 Z"/></g>
<g><path style="opacity:0.037" fill="#e6e7ed" d="M 829.5,538.5 C 829.59,541.152 828.924,543.485 827.5,545.5C 827.41,542.848 828.076,540.515 829.5,538.5 Z"/></g>
<g><path style="opacity:0.996" fill="#0e0d4f" d="M 831.5,392.5 C 832.167,393.5 832.833,394.5 833.5,395.5C 834.785,398.589 835.451,401.922 835.5,405.5C 835.864,412.064 836.864,418.397 838.5,424.5C 839.386,431.457 839.72,438.457 839.5,445.5C 839.282,465.542 838.282,485.542 836.5,505.5C 835.097,508.909 834.43,512.575 834.5,516.5C 834.795,518.735 834.461,520.735 833.5,522.5C 831.96,524.838 831.294,527.505 831.5,530.5C 831.435,533.428 830.768,536.095 829.5,538.5C 828.076,540.515 827.41,542.848 827.5,545.5C 827.072,548.785 826.072,551.785 824.5,554.5C 823.069,555.78 822.402,557.447 822.5,559.5C 822.737,560.791 822.404,561.791 821.5,562.5C 820.069,563.78 819.402,565.447 819.5,567.5C 818.284,572.262 816.284,576.595 813.5,580.5C 812.5,581.833 811.5,583.167 810.5,584.5C 807.857,583.021 805.357,583.354 803,585.5C 802.493,584.004 802.993,582.837 804.5,582C 813.198,579.756 813.698,576.256 806,571.5C 804.951,572.517 803.784,572.684 802.5,572C 801,570.167 799.5,568.333 798,566.5C 796.855,567.684 795.688,567.684 794.5,566.5C 797.426,560.391 799.759,554.057 801.5,547.5C 801.263,546.209 801.596,545.209 802.5,544.5C 803.738,542.786 804.405,540.786 804.5,538.5C 804.721,535.933 805.388,533.599 806.5,531.5C 808.245,527.8 809.245,523.8 809.5,519.5C 809.676,516.273 810.343,513.273 811.5,510.5C 813.104,506.1 813.771,501.434 813.5,496.5C 815.154,487.045 816.154,477.378 816.5,467.5C 817.573,474.441 818.239,481.441 818.5,488.5C 820.575,487.238 822.575,487.405 824.5,489C 823.228,491.044 823.561,492.878 825.5,494.5C 828.375,495.081 831.042,496.081 833.5,497.5C 835.313,491.538 835.646,485.538 834.5,479.5C 834.946,476.724 835.946,474.224 837.5,472C 837.494,460.345 837.494,448.678 837.5,437C 836.691,433.245 835.691,429.578 834.5,426C 835.325,421.703 835.325,417.203 834.5,412.5C 833.756,411.009 833.09,409.509 832.5,408C 830.144,407.845 827.811,407.845 825.5,408C 826.337,406.989 826.67,405.822 826.5,404.5C 828.674,404.92 830.674,404.92 832.5,404.5C 833.833,403.167 833.833,401.833 832.5,400.5C 829.167,399.167 825.833,399.167 822.5,400.5C 821.5,399.833 820.5,399.167 819.5,398.5C 817.768,400.283 816.268,402.283 815,404.5C 814.398,406.91 813.898,408.91 813.5,410.5C 812.833,409.167 812.167,407.833 811.5,406.5C 811.678,402.878 811.011,399.544 809.5,396.5C 808.566,395.432 808.232,394.099 808.5,392.5C 808.5,391.5 808.5,390.5 808.5,389.5C 809.239,389.631 809.906,389.464 810.5,389C 809.483,387.951 809.316,386.784 810,385.5C 811.333,384.833 812.667,384.167 814,383.5C 814.901,386.599 815.234,389.599 815,392.5C 816.507,391.465 818.007,391.632 819.5,393C 817.407,395.258 815.407,396.925 813.5,398C 813.833,398.5 814.167,399 814.5,399.5C 815.524,398.147 816.857,397.48 818.5,397.5C 818.351,396.448 818.517,395.448 819,394.5C 820.585,395.376 821.585,396.709 822,398.5C 823.47,396.848 825.303,395.848 827.5,395.5C 830.389,396.966 831.723,395.966 831.5,392.5 Z"/></g>
<g><path style="opacity:0.995" fill="#020549" d="M 233.5,313.5 C 237.192,316.862 240.859,320.195 244.5,323.5C 244.5,419.833 244.5,516.167 244.5,612.5C 244.5,685.833 244.5,759.167 244.5,832.5C 243.518,831.859 242.518,831.193 241.5,830.5C 240.377,832.289 239.044,832.622 237.5,831.5C 238.145,830.354 238.978,829.354 240,828.5C 241.011,829.337 242.178,829.67 243.5,829.5C 243.186,816.746 243.186,804.079 243.5,791.5C 241.654,791.222 240.32,791.889 239.5,793.5C 240.67,804.203 240.67,815.036 239.5,826C 238.118,827.933 236.618,829.766 235,831.5C 234.085,828.657 234.919,826.49 237.5,825C 238.187,823.838 238.353,822.672 238,821.5C 235.763,824.825 232.929,826.991 229.5,828C 232.047,825.731 234.047,823.065 235.5,820C 235,819.833 234.5,819.667 234,819.5C 232.832,820.509 231.665,821.509 230.5,822.5C 230.167,822.167 229.833,821.833 229.5,821.5C 232.715,817.573 236.049,813.74 239.5,810C 239,809.5 238.5,809 238,808.5C 234.164,812.309 230.664,816.476 227.5,821C 226.517,821.591 225.85,821.257 225.5,820C 229.47,814.696 233.803,809.696 238.5,805C 238.167,804.5 237.833,804 237.5,803.5C 233.849,807.652 230.016,811.652 226,815.5C 225.405,814.101 225.572,812.768 226.5,811.5C 228.605,808.973 230.939,806.64 233.5,804.5C 234.978,801.024 234.812,797.691 233,794.5C 232.019,797.689 230.686,798.022 229,795.5C 226.438,797.967 225.438,797.3 226,793.5C 227.797,790.904 229.131,791.237 230,794.5C 232.632,792.547 234.798,790.214 236.5,787.5C 237.192,788.025 237.692,788.692 238,789.5C 239.699,788.594 241.533,788.261 243.5,788.5C 244.044,784.327 243.377,780.494 241.5,777C 243.901,774.827 243.901,772.494 241.5,770C 242.167,768.333 242.833,766.667 243.5,765C 243.473,758.313 243.306,751.146 243,743.5C 242.586,743.043 242.086,742.709 241.5,742.5C 239.47,745.206 239.47,747.706 241.5,750C 240.273,752.27 238.606,754.103 236.5,755.5C 236.667,755.833 236.833,756.167 237,756.5C 238.471,754.128 239.637,754.128 240.5,756.5C 239.556,759.3 239.556,762.3 240.5,765.5C 236.929,765.408 235.762,767.074 237,770.5C 237.442,768.321 238.442,767.655 240,768.5C 241.088,771.492 240.421,772.492 238,771.5C 236.779,772.272 235.779,773.272 235,774.5C 233.533,771.216 233.699,768.216 235.5,765.5C 233.671,764.718 232.171,765.384 231,767.5C 230.833,767 230.667,766.5 230.5,766C 230.995,763.274 232.162,761.774 234,761.5C 234.667,760.167 234.667,758.833 234,757.5C 233.221,758.728 232.221,759.728 231,760.5C 228.814,760.034 226.648,759.701 224.5,759.5C 222.814,765.341 223.98,766.341 228,762.5C 229.259,765.026 229.259,767.359 228,769.5C 227.167,768.5 226.333,767.5 225.5,766.5C 224.914,766.709 224.414,767.043 224,767.5C 224.406,785.073 224.239,802.406 223.5,819.5C 223.667,821.167 223.833,822.833 224,824.5C 224.333,824.833 224.667,825.167 225,825.5C 226.471,823.128 227.637,823.128 228.5,825.5C 228.444,826.737 227.944,827.737 227,828.5C 225.989,827.663 224.822,827.33 223.5,827.5C 223.5,829.167 223.5,830.833 223.5,832.5C 226.705,832.908 229.705,832.908 232.5,832.5C 230.54,836.487 227.54,837.487 223.5,835.5C 222.608,842.791 222.274,850.124 222.5,857.5C 222.167,857.5 221.833,857.5 221.5,857.5C 221.5,683.833 221.5,510.167 221.5,336.5C 222.93,336.421 224.264,336.754 225.5,337.5C 226.728,335.102 226.062,333.268 223.5,332C 224.126,331.25 224.626,330.416 225,329.5C 226.964,331.875 228.464,334.541 229.5,337.5C 230.524,338.853 231.857,339.52 233.5,339.5C 233.351,340.552 233.517,341.552 234,342.5C 234.408,340.59 235.575,339.59 237.5,339.5C 239.453,340.156 241.453,340.489 243.5,340.5C 243.5,339.167 243.5,337.833 243.5,336.5C 240.551,335.987 237.718,335.987 235,336.5C 234.751,335.376 234.251,334.376 233.5,333.5C 231.461,336.192 230.627,335.858 231,332.5C 232.697,331.636 233.863,330.303 234.5,328.5C 232.182,327.166 230.515,327.832 229.5,330.5C 229.167,330 228.833,329.5 228.5,329C 229.856,327.433 230.523,325.6 230.5,323.5C 235.794,323.318 235.794,322.818 230.5,322C 231.731,320.817 231.731,319.651 230.5,318.5C 228.742,319.128 227.242,320.128 226,321.5C 226.195,319.874 226.195,318.207 226,316.5C 224.047,320.422 222.881,320.088 222.5,315.5C 224.262,315.643 225.929,315.309 227.5,314.5C 229.323,315.747 231.323,316.414 233.5,316.5C 233.5,315.5 233.5,314.5 233.5,313.5 Z"/></g>
<g><path style="opacity:0.263" fill="#d0d1dc" d="M 824.5,554.5 C 824.598,556.553 823.931,558.22 822.5,559.5C 822.402,557.447 823.069,555.78 824.5,554.5 Z"/></g>
<g><path style="opacity:0.055" fill="#dbdce5" d="M 821.5,562.5 C 821.598,564.553 820.931,566.22 819.5,567.5C 819.402,565.447 820.069,563.78 821.5,562.5 Z"/></g>
<g><path style="opacity:0.612" fill="#9b9fb5" d="M 244.5,323.5 C 244.833,323.5 245.167,323.5 245.5,323.5C 245.549,419.572 245.549,515.905 245.5,612.5C 245.167,612.5 244.833,612.5 244.5,612.5C 244.5,516.167 244.5,419.833 244.5,323.5 Z"/></g>
<g><path style="opacity:0.055" fill="#dcdce5" d="M 813.5,580.5 C 813.539,583.089 812.539,585.089 810.5,586.5C 810.5,585.833 810.5,585.167 810.5,584.5C 811.5,583.167 812.5,581.833 813.5,580.5 Z"/></g>
<g><path style="opacity:0.086" fill="#e0e0e8" d="M 810.5,586.5 C 810.771,588.38 810.104,589.713 808.5,590.5C 808.66,588.847 809.326,587.514 810.5,586.5 Z"/></g>
<g><path style="opacity:0.996" fill="#070850" d="M 794.5,566.5 C 795.688,567.684 796.855,567.684 798,566.5C 799.5,568.333 801,570.167 802.5,572C 803.784,572.684 804.951,572.517 806,571.5C 813.698,576.256 813.198,579.756 804.5,582C 802.993,582.837 802.493,584.004 803,585.5C 805.357,583.354 807.857,583.021 810.5,584.5C 810.5,585.167 810.5,585.833 810.5,586.5C 809.326,587.514 808.66,588.847 808.5,590.5C 808.34,592.153 807.674,593.486 806.5,594.5C 805.094,594.973 804.427,595.973 804.5,597.5C 804.672,598.492 804.338,599.158 803.5,599.5C 801.75,600.659 800.75,602.326 800.5,604.5C 799.094,604.973 798.427,605.973 798.5,607.5C 797.094,607.973 796.427,608.973 796.5,610.5C 796.068,611.71 795.401,612.71 794.5,613.5C 793.094,613.973 792.427,614.973 792.5,616.5C 792.167,617.5 791.5,618.167 790.5,618.5C 789.542,618.953 788.708,619.619 788,620.5C 785.871,619.137 785.371,619.471 786.5,621.5C 784.995,622.842 784.328,624.508 784.5,626.5C 784.167,627.5 783.5,628.167 782.5,628.5C 780.738,629.262 779.738,630.596 779.5,632.5C 778.833,633.833 777.833,634.833 776.5,635.5C 772.766,638.231 769.766,641.564 767.5,645.5C 767.167,646.5 766.5,647.167 765.5,647.5C 762.236,649.094 759.569,651.427 757.5,654.5C 756.833,655.833 755.833,656.833 754.5,657.5C 752.973,657.427 751.973,658.094 751.5,659.5C 751.167,660.5 750.5,661.167 749.5,661.5C 747.973,661.427 746.973,662.094 746.5,663.5C 746.5,664.167 746.167,664.5 745.5,664.5C 743.973,664.427 742.973,665.094 742.5,666.5C 742.5,667.167 742.167,667.5 741.5,667.5C 739.973,667.427 738.973,668.094 738.5,669.5C 737.71,670.401 736.71,671.068 735.5,671.5C 733.973,671.427 732.973,672.094 732.5,673.5C 731.101,674.89 729.434,675.89 727.5,676.5C 725.973,676.427 724.973,677.094 724.5,678.5C 723.486,679.674 722.153,680.34 720.5,680.5C 718.973,680.427 717.973,681.094 717.5,682.5C 715.62,682.229 714.287,682.896 713.5,684.5C 711.151,686.341 708.485,687.674 705.5,688.5C 703.447,688.402 701.78,689.069 700.5,690.5C 700.158,691.338 699.492,691.672 698.5,691.5C 695.557,691.98 692.89,692.98 690.5,694.5C 690.158,695.338 689.492,695.672 688.5,695.5C 685.215,695.928 682.215,696.928 679.5,698.5C 678.791,699.404 677.791,699.737 676.5,699.5C 672.952,700.13 669.619,701.13 666.5,702.5C 660.986,703.545 655.653,704.878 650.5,706.5C 642.958,707.382 635.625,708.715 628.5,710.5C 620.953,710.406 613.62,711.072 606.5,712.5C 590.71,713.828 575.044,713.495 559.5,711.5C 565.176,711.666 570.843,711.499 576.5,711C 573.5,710.667 570.5,710.333 567.5,710C 568.263,709.056 569.263,708.556 570.5,708.5C 581.329,708.752 591.996,708.752 602.5,708.5C 603.932,708.267 604.432,707.6 604,706.5C 603.15,705.576 602.15,705.576 601,706.5C 599.394,704.016 597.894,704.016 596.5,706.5C 595.5,705.833 594.5,705.167 593.5,704.5C 592.5,705.167 591.5,705.833 590.5,706.5C 588.745,703.977 586.911,703.977 585,706.5C 583.089,703.977 581.255,703.977 579.5,706.5C 578.476,705.147 577.143,704.48 575.5,704.5C 575.649,705.552 575.483,706.552 575,707.5C 572.684,706.861 570.184,706.861 567.5,707.5C 560.958,704.868 554.291,704.202 547.5,705.5C 543.591,702.979 540.091,703.312 537,706.5C 536.544,705.256 537.044,704.423 538.5,704C 535.096,703.779 531.762,704.279 528.5,705.5C 527.713,704.758 527.047,703.925 526.5,703C 526.501,701.601 526.835,700.101 527.5,698.5C 526.833,698.167 526.167,697.833 525.5,697.5C 523.61,698.612 521.61,699.446 519.5,700C 520.696,700.654 520.696,701.154 519.5,701.5C 516.702,699.434 517.035,697.934 520.5,697C 518.559,696.257 516.726,696.424 515,697.5C 514.374,695.009 513.541,695.009 512.5,697.5C 511.304,697.154 511.304,696.654 512.5,696C 511.551,695.383 510.718,695.549 510,696.5C 509.667,695.833 509.333,695.167 509,694.5C 507.204,695.767 505.371,695.767 503.5,694.5C 500.993,696.641 498.327,696.641 495.5,694.5C 496.397,694.331 497.397,693.998 498.5,693.5C 497.624,692.749 496.624,692.249 495.5,692C 497.561,687.371 500.894,685.204 505.5,685.5C 506.167,686.5 506.833,687.5 507.5,688.5C 508.914,687.376 510.414,686.376 512,685.5C 513.572,687.589 515.405,687.589 517.5,685.5C 517.554,686.687 517.887,688.02 518.5,689.5C 520.465,686.88 521.965,687.214 523,690.5C 523.879,687.654 525.546,686.987 528,688.5C 528.5,687.333 529.333,686.5 530.5,686C 529.833,685.667 529.167,685.333 528.5,685C 531.447,685.152 534.447,685.319 537.5,685.5C 564.061,689.552 590.727,690.385 617.5,688C 622.362,687.477 627.028,686.644 631.5,685.5C 635.394,684.407 639.394,683.74 643.5,683.5C 646.781,683.58 649.781,682.913 652.5,681.5C 657.529,681.08 662.195,679.746 666.5,677.5C 667.568,676.566 668.901,676.232 670.5,676.5C 673.542,676.267 676.208,675.267 678.5,673.5C 683.017,672.903 687.017,671.237 690.5,668.5C 695.753,667.207 700.419,664.874 704.5,661.5C 704.842,660.662 705.508,660.328 706.5,660.5C 709.331,659.921 711.664,658.588 713.5,656.5C 740.293,641.21 762.127,620.544 779,594.5C 784.94,585.622 790.107,576.289 794.5,566.5 Z"/></g>
<g><path style="opacity:0.016" fill="#e5e6ed" d="M 806.5,594.5 C 806.573,596.027 805.906,597.027 804.5,597.5C 804.427,595.973 805.094,594.973 806.5,594.5 Z"/></g>
<g><path style="opacity:0.106" fill="#e4e5eb" d="M 803.5,599.5 C 803.25,601.674 802.25,603.341 800.5,604.5C 800.75,602.326 801.75,600.659 803.5,599.5 Z"/></g>
<g><path style="opacity:0.161" fill="#e3e3ea" d="M 801.5,547.5 C 799.759,554.057 797.426,560.391 794.5,566.5C 790.107,576.289 784.94,585.622 779,594.5C 762.127,620.544 740.293,641.21 713.5,656.5C 754.597,629.729 783.931,593.396 801.5,547.5 Z"/></g>
<g><path style="opacity:0.016" fill="#eaeaef" d="M 800.5,604.5 C 800.573,606.027 799.906,607.027 798.5,607.5C 798.427,605.973 799.094,604.973 800.5,604.5 Z"/></g>
<g><path style="opacity:0.024" fill="#e5e6ec" d="M 798.5,607.5 C 798.573,609.027 797.906,610.027 796.5,610.5C 796.427,608.973 797.094,607.973 798.5,607.5 Z"/></g>
<g><path style="opacity:0.804" fill="#c0c1d1" d="M 401.5,609.5 C 407.167,614.5 412.5,619.833 417.5,625.5C 411.167,621.167 405.833,615.833 401.5,609.5 Z"/></g>
<g><path style="opacity:0.016" fill="#ededf1" d="M 794.5,613.5 C 794.573,615.027 793.906,616.027 792.5,616.5C 792.427,614.973 793.094,613.973 794.5,613.5 Z"/></g>
<g><path style="opacity:0.953" fill="#786f9c" d="M 790.5,618.5 C 788.878,621.455 786.878,624.122 784.5,626.5C 784.328,624.508 784.995,622.842 786.5,621.5C 785.371,619.471 785.871,619.137 788,620.5C 788.708,619.619 789.542,618.953 790.5,618.5 Z"/></g>
<g><path style="opacity:0.016" fill="#e2e3ea" d="M 419.5,627.5 C 421.749,628.08 423.415,629.413 424.5,631.5C 422.251,630.92 420.585,629.587 419.5,627.5 Z"/></g>
<g><path style="opacity:0.039" fill="#d8d8e3" d="M 782.5,628.5 C 782.262,630.404 781.262,631.738 779.5,632.5C 779.738,630.596 780.738,629.262 782.5,628.5 Z"/></g>
<g><path style="opacity:0.024" fill="#d9d9e3" d="M 426.5,633.5 C 428.404,633.738 429.738,634.738 430.5,636.5C 428.596,636.262 427.262,635.262 426.5,633.5 Z"/></g>
<g><path style="opacity:0.043" fill="#dddee6" d="M 431.5,637.5 C 433.027,637.427 434.027,638.094 434.5,639.5C 432.973,639.573 431.973,638.906 431.5,637.5 Z"/></g>
<g><path style="opacity:0.024" fill="#dcdde6" d="M 776.5,635.5 C 774.234,639.436 771.234,642.769 767.5,645.5C 769.766,641.564 772.766,638.231 776.5,635.5 Z"/></g>
<g><path style="opacity:0.024" fill="#e5e5eb" d="M 435.5,640.5 C 437.027,640.427 438.027,641.094 438.5,642.5C 436.973,642.573 435.973,641.906 435.5,640.5 Z"/></g>
<g><path style="opacity:0.016" fill="#e6e6ec" d="M 438.5,642.5 C 440.404,642.738 441.738,643.738 442.5,645.5C 440.596,645.262 439.262,644.262 438.5,642.5 Z"/></g>
<g><path style="opacity:0.031" fill="#e5e6ec" d="M 442.5,645.5 C 444.027,645.427 445.027,646.094 445.5,647.5C 443.973,647.573 442.973,646.906 442.5,645.5 Z"/></g>
<g><path style="opacity:0.024" fill="#e8e9ee" d="M 448.5,649.5 C 450.027,649.427 451.027,650.094 451.5,651.5C 449.973,651.573 448.973,650.906 448.5,649.5 Z"/></g>
<g><path style="opacity:0.024" fill="#e1e2ea" d="M 451.5,651.5 C 453.027,651.427 454.027,652.094 454.5,653.5C 452.973,653.573 451.973,652.906 451.5,651.5 Z"/></g>
<g><path style="opacity:0.016" fill="#e2e2ea" d="M 765.5,647.5 C 763.431,650.573 760.764,652.906 757.5,654.5C 759.569,651.427 762.236,649.094 765.5,647.5 Z"/></g>
<g><path style="opacity:0.114" fill="#e0e2e9" d="M 458.5,655.5 C 460.027,655.427 461.027,656.094 461.5,657.5C 459.973,657.573 458.973,656.906 458.5,655.5 Z"/></g>
<g><path style="opacity:0.055" fill="#e6e6ec" d="M 461.5,657.5 C 463.38,657.229 464.713,657.896 465.5,659.5C 463.847,659.34 462.514,658.674 461.5,657.5 Z"/></g>
<g><path style="opacity:0.016" fill="#e8e9ee" d="M 754.5,657.5 C 754.027,658.906 753.027,659.573 751.5,659.5C 751.973,658.094 752.973,657.427 754.5,657.5 Z"/></g>
<g><path style="opacity:0.337" fill="#ebebf0" d="M 713.5,656.5 C 711.664,658.588 709.331,659.921 706.5,660.5C 708.336,658.412 710.669,657.079 713.5,656.5 Z"/></g>
<g><path style="opacity:0.016" fill="#e8e8ee" d="M 749.5,661.5 C 749.027,662.906 748.027,663.573 746.5,663.5C 746.973,662.094 747.973,661.427 749.5,661.5 Z"/></g>
<g><path style="opacity:0.106" fill="#e1e2e9" d="M 704.5,661.5 C 700.419,664.874 695.753,667.207 690.5,668.5C 694.86,665.653 699.527,663.32 704.5,661.5 Z"/></g>
<g><path style="opacity:0.149" fill="#d8d9e3" d="M 473.5,663.5 C 477.582,664.376 481.249,666.043 484.5,668.5C 480.418,667.624 476.751,665.957 473.5,663.5 Z"/></g>
<g><path style="opacity:0.024" fill="#e8e8ee" d="M 745.5,664.5 C 745.027,665.906 744.027,666.573 742.5,666.5C 742.973,665.094 743.973,664.427 745.5,664.5 Z"/></g>
<g><path style="opacity:0.016" fill="#f4f4f6" d="M 741.5,667.5 C 741.027,668.906 740.027,669.573 738.5,669.5C 738.973,668.094 739.973,667.427 741.5,667.5 Z"/></g>
<g><path style="opacity:0.041" fill="#e1e2e9" d="M 486.5,669.5 C 489.649,669.415 492.316,670.415 494.5,672.5C 491.557,672.02 488.89,671.02 486.5,669.5 Z"/></g>
<g><path style="opacity:0.216" fill="#dbdce5" d="M 690.5,668.5 C 687.017,671.237 683.017,672.903 678.5,673.5C 682.063,670.976 686.063,669.309 690.5,668.5 Z"/></g>
<g><path style="opacity:0.024" fill="#f2f2f5" d="M 735.5,671.5 C 735.027,672.906 734.027,673.573 732.5,673.5C 732.973,672.094 733.973,671.427 735.5,671.5 Z"/></g>
<g><path style="opacity:0.027" fill="#dfe0e8" d="M 497.5,673.5 C 501.767,674.256 505.767,675.589 509.5,677.5C 505.085,677.139 501.085,675.806 497.5,673.5 Z"/></g>
<g><path style="opacity:0.176" fill="#e5e6ec" d="M 678.5,673.5 C 676.208,675.267 673.542,676.267 670.5,676.5C 672.792,674.733 675.458,673.733 678.5,673.5 Z"/></g>
<g><path style="opacity:0.024" fill="#ecedf1" d="M 727.5,676.5 C 727.027,677.906 726.027,678.573 724.5,678.5C 724.973,677.094 725.973,676.427 727.5,676.5 Z"/></g>
<g><path style="opacity:0.047" fill="#eff0f3" d="M 666.5,677.5 C 662.195,679.746 657.529,681.08 652.5,681.5C 656.895,679.565 661.562,678.231 666.5,677.5 Z"/></g>
<g><path style="opacity:0.033" fill="#ebecf0" d="M 652.5,681.5 C 649.781,682.913 646.781,683.58 643.5,683.5C 646.171,681.882 649.171,681.215 652.5,681.5 Z"/></g>
<g><path style="opacity:0.016" fill="#eeeff3" d="M 720.5,680.5 C 720.027,681.906 719.027,682.573 717.5,682.5C 717.973,681.094 718.973,680.427 720.5,680.5 Z"/></g>
<g><path style="opacity:0.016" fill="#ededf2" d="M 717.5,682.5 C 716.486,683.674 715.153,684.34 713.5,684.5C 714.287,682.896 715.62,682.229 717.5,682.5 Z"/></g>
<g><path style="opacity:0.203" fill="#dadbe3" d="M 509.5,677.5 C 549.629,688.216 590.296,690.883 631.5,685.5C 627.028,686.644 622.362,687.477 617.5,688C 590.727,690.385 564.061,689.552 537.5,685.5C 528.082,683.145 518.749,680.479 509.5,677.5 Z"/></g>
<g><path style="opacity:0.137" fill="#dfe0e8" d="M 705.5,688.5 C 704.22,689.931 702.553,690.598 700.5,690.5C 701.78,689.069 703.447,688.402 705.5,688.5 Z"/></g>
<g><path style="opacity:0.029" fill="#e7e7ed" d="M 698.5,691.5 C 696.316,693.585 693.649,694.585 690.5,694.5C 692.89,692.98 695.557,691.98 698.5,691.5 Z"/></g>
<g><path style="opacity:0.055" fill="#e6e6ec" d="M 688.5,695.5 C 685.916,697.472 682.916,698.472 679.5,698.5C 682.215,696.928 685.215,695.928 688.5,695.5 Z"/></g>
<g><path style="opacity:0.041" fill="#e0e0e8" d="M 676.5,699.5 C 673.619,701.68 670.286,702.68 666.5,702.5C 669.619,701.13 672.952,700.13 676.5,699.5 Z"/></g>
<g><path style="opacity:0.029" fill="#dfdfe7" d="M 666.5,702.5 C 661.578,705.064 656.245,706.397 650.5,706.5C 655.653,704.878 660.986,703.545 666.5,702.5 Z"/></g>
<g><path style="opacity:0.054" fill="#dddee6" d="M 650.5,706.5 C 643.492,708.966 636.158,710.3 628.5,710.5C 635.625,708.715 642.958,707.382 650.5,706.5 Z"/></g>
<g><path style="opacity:0.048" fill="#e2e2e9" d="M 628.5,710.5 C 621.38,711.928 614.047,712.594 606.5,712.5C 613.62,711.072 620.953,710.406 628.5,710.5 Z"/></g>
<g><path style="opacity:0.341" fill="#cccdd8" d="M 430.5,666.5 C 428.278,666.822 426.444,666.155 425,664.5C 424.833,728.335 424.333,792.001 423.5,855.5C 423.167,790.83 423.5,726.163 424.5,661.5C 426.571,663.185 428.571,664.852 430.5,666.5 Z"/></g>
<g><path style="opacity:0.997" fill="#05074d" d="M 401.5,609.5 C 405.833,615.833 411.167,621.167 417.5,625.5C 418.5,625.833 419.167,626.5 419.5,627.5C 420.585,629.587 422.251,630.92 424.5,631.5C 425.5,631.833 426.167,632.5 426.5,633.5C 427.262,635.262 428.596,636.262 430.5,636.5C 431.167,636.5 431.5,636.833 431.5,637.5C 431.973,638.906 432.973,639.573 434.5,639.5C 435.167,639.5 435.5,639.833 435.5,640.5C 435.973,641.906 436.973,642.573 438.5,642.5C 439.262,644.262 440.596,645.262 442.5,645.5C 442.973,646.906 443.973,647.573 445.5,647.5C 446.71,647.932 447.71,648.599 448.5,649.5C 448.973,650.906 449.973,651.573 451.5,651.5C 451.973,652.906 452.973,653.573 454.5,653.5C 456.153,653.66 457.486,654.326 458.5,655.5C 458.973,656.906 459.973,657.573 461.5,657.5C 462.514,658.674 463.847,659.34 465.5,659.5C 468.485,660.326 471.151,661.659 473.5,663.5C 476.751,665.957 480.418,667.624 484.5,668.5C 485.492,668.328 486.158,668.662 486.5,669.5C 488.89,671.02 491.557,672.02 494.5,672.5C 495.791,672.263 496.791,672.596 497.5,673.5C 501.085,675.806 505.085,677.139 509.5,677.5C 518.749,680.479 528.082,683.145 537.5,685.5C 534.447,685.319 531.447,685.152 528.5,685C 529.167,685.333 529.833,685.667 530.5,686C 529.333,686.5 528.5,687.333 528,688.5C 525.546,686.987 523.879,687.654 523,690.5C 521.965,687.214 520.465,686.88 518.5,689.5C 517.887,688.02 517.554,686.687 517.5,685.5C 515.405,687.589 513.572,687.589 512,685.5C 510.414,686.376 508.914,687.376 507.5,688.5C 506.833,687.5 506.167,686.5 505.5,685.5C 500.894,685.204 497.561,687.371 495.5,692C 496.624,692.249 497.624,692.749 498.5,693.5C 497.397,693.998 496.397,694.331 495.5,694.5C 498.327,696.641 500.993,696.641 503.5,694.5C 505.371,695.767 507.204,695.767 509,694.5C 509.333,695.167 509.667,695.833 510,696.5C 510.718,695.549 511.551,695.383 512.5,696C 511.304,696.654 511.304,697.154 512.5,697.5C 513.541,695.009 514.374,695.009 515,697.5C 516.726,696.424 518.559,696.257 520.5,697C 517.035,697.934 516.702,699.434 519.5,701.5C 520.696,701.154 520.696,700.654 519.5,700C 521.61,699.446 523.61,698.612 525.5,697.5C 526.167,697.833 526.833,698.167 527.5,698.5C 526.835,700.101 526.501,701.601 526.5,703C 527.047,703.925 527.713,704.758 528.5,705.5C 531.762,704.279 535.096,703.779 538.5,704C 537.044,704.423 536.544,705.256 537,706.5C 540.091,703.312 543.591,702.979 547.5,705.5C 554.291,704.202 560.958,704.868 567.5,707.5C 570.184,706.861 572.684,706.861 575,707.5C 575.483,706.552 575.649,705.552 575.5,704.5C 577.143,704.48 578.476,705.147 579.5,706.5C 581.255,703.977 583.089,703.977 585,706.5C 586.911,703.977 588.745,703.977 590.5,706.5C 591.5,705.833 592.5,705.167 593.5,704.5C 594.5,705.167 595.5,705.833 596.5,706.5C 597.894,704.016 599.394,704.016 601,706.5C 602.15,705.576 603.15,705.576 604,706.5C 604.432,707.6 603.932,708.267 602.5,708.5C 591.996,708.752 581.329,708.752 570.5,708.5C 569.263,708.556 568.263,709.056 567.5,710C 570.5,710.333 573.5,710.667 576.5,711C 570.843,711.499 565.176,711.666 559.5,711.5C 555.731,711.756 552.064,711.423 548.5,710.5C 544.382,709.291 540.049,708.624 535.5,708.5C 530.74,707.809 526.074,706.809 521.5,705.5C 519.095,704.232 516.428,703.565 513.5,703.5C 511.901,703.768 510.568,703.434 509.5,702.5C 505.405,700.721 501.072,699.388 496.5,698.5C 493.785,696.928 490.785,695.928 487.5,695.5C 485.618,694.249 483.618,693.082 481.5,692C 480.207,691.51 478.873,691.343 477.5,691.5C 475.597,691.204 473.93,690.537 472.5,689.5C 470.574,687.707 468.241,686.707 465.5,686.5C 464.486,685.326 463.153,684.66 461.5,684.5C 459.847,684.34 458.514,683.674 457.5,682.5C 455.819,680.992 453.819,679.992 451.5,679.5C 449.664,677.412 447.331,676.079 444.5,675.5C 443.508,675.672 442.842,675.338 442.5,674.5C 440.853,672.674 438.853,671.34 436.5,670.5C 435.508,670.672 434.842,670.338 434.5,669.5C 433.738,667.738 432.404,666.738 430.5,666.5C 428.571,664.852 426.571,663.185 424.5,661.5C 423.5,726.163 423.167,790.83 423.5,855.5C 423.706,858.495 423.04,861.162 421.5,863.5C 420.262,865.214 419.595,867.214 419.5,869.5C 418.094,869.973 417.427,870.973 417.5,872.5C 416.11,873.899 415.11,875.566 414.5,877.5C 414.5,878.167 414.167,878.5 413.5,878.5C 411.833,879.5 410.5,880.833 409.5,882.5C 409.167,883.5 408.5,884.167 407.5,884.5C 405.596,884.738 404.262,885.738 403.5,887.5C 403.158,888.338 402.492,888.672 401.5,888.5C 399.847,888.66 398.514,889.326 397.5,890.5C 394.215,890.928 391.215,891.928 388.5,893.5C 342.167,894.833 295.833,894.833 249.5,893.5C 246.021,891.597 242.354,889.93 238.5,888.5C 237.738,886.738 236.404,885.738 234.5,885.5C 234.167,884.5 233.5,883.833 232.5,883.5C 231.92,881.251 230.587,879.585 228.5,878.5C 227.528,875.563 226.195,872.897 224.5,870.5C 223.354,866.246 222.687,861.913 222.5,857.5C 222.274,850.124 222.608,842.791 223.5,835.5C 227.54,837.487 230.54,836.487 232.5,832.5C 229.705,832.908 226.705,832.908 223.5,832.5C 223.5,830.833 223.5,829.167 223.5,827.5C 224.822,827.33 225.989,827.663 227,828.5C 227.944,827.737 228.444,826.737 228.5,825.5C 227.637,823.128 226.471,823.128 225,825.5C 224.667,825.167 224.333,824.833 224,824.5C 223.833,822.833 223.667,821.167 223.5,819.5C 224.239,802.406 224.406,785.073 224,767.5C 224.414,767.043 224.914,766.709 225.5,766.5C 226.333,767.5 227.167,768.5 228,769.5C 229.259,767.359 229.259,765.026 228,762.5C 223.98,766.341 222.814,765.341 224.5,759.5C 226.648,759.701 228.814,760.034 231,760.5C 232.221,759.728 233.221,758.728 234,757.5C 234.667,758.833 234.667,760.167 234,761.5C 232.162,761.774 230.995,763.274 230.5,766C 230.667,766.5 230.833,767 231,767.5C 232.171,765.384 233.671,764.718 235.5,765.5C 233.699,768.216 233.533,771.216 235,774.5C 235.779,773.272 236.779,772.272 238,771.5C 240.421,772.492 241.088,771.492 240,768.5C 238.442,767.655 237.442,768.321 237,770.5C 235.762,767.074 236.929,765.408 240.5,765.5C 239.556,762.3 239.556,759.3 240.5,756.5C 239.637,754.128 238.471,754.128 237,756.5C 236.833,756.167 236.667,755.833 236.5,755.5C 238.606,754.103 240.273,752.27 241.5,750C 239.47,747.706 239.47,745.206 241.5,742.5C 242.086,742.709 242.586,743.043 243,743.5C 243.306,751.146 243.473,758.313 243.5,765C 242.833,766.667 242.167,768.333 241.5,770C 243.901,772.494 243.901,774.827 241.5,777C 243.377,780.494 244.044,784.327 243.5,788.5C 241.533,788.261 239.699,788.594 238,789.5C 237.692,788.692 237.192,788.025 236.5,787.5C 234.798,790.214 232.632,792.547 230,794.5C 229.131,791.237 227.797,790.904 226,793.5C 225.438,797.3 226.438,797.967 229,795.5C 230.686,798.022 232.019,797.689 233,794.5C 234.812,797.691 234.978,801.024 233.5,804.5C 230.939,806.64 228.605,808.973 226.5,811.5C 225.572,812.768 225.405,814.101 226,815.5C 230.016,811.652 233.849,807.652 237.5,803.5C 237.833,804 238.167,804.5 238.5,805C 233.803,809.696 229.47,814.696 225.5,820C 225.85,821.257 226.517,821.591 227.5,821C 230.664,816.476 234.164,812.309 238,808.5C 238.5,809 239,809.5 239.5,810C 236.049,813.74 232.715,817.573 229.5,821.5C 229.833,821.833 230.167,822.167 230.5,822.5C 231.665,821.509 232.832,820.509 234,819.5C 234.5,819.667 235,819.833 235.5,820C 234.047,823.065 232.047,825.731 229.5,828C 232.929,826.991 235.763,824.825 238,821.5C 238.353,822.672 238.187,823.838 237.5,825C 234.919,826.49 234.085,828.657 235,831.5C 236.618,829.766 238.118,827.933 239.5,826C 240.67,815.036 240.67,804.203 239.5,793.5C 240.32,791.889 241.654,791.222 243.5,791.5C 243.186,804.079 243.186,816.746 243.5,829.5C 242.178,829.67 241.011,829.337 240,828.5C 238.978,829.354 238.145,830.354 237.5,831.5C 239.044,832.622 240.377,832.289 241.5,830.5C 242.518,831.193 243.518,831.859 244.5,832.5C 244.334,841.173 244.5,849.84 245,858.5C 245.21,860.058 245.71,861.391 246.5,862.5C 246.427,864.027 247.094,865.027 248.5,865.5C 249.5,865.833 250.167,866.5 250.5,867.5C 251.911,869.539 253.911,870.539 256.5,870.5C 297.665,871.665 338.998,871.831 380.5,871C 382.382,870.802 384.048,870.302 385.5,869.5C 386.209,868.596 387.209,868.263 388.5,868.5C 394.714,865.438 398.548,860.438 400,853.5C 400.167,771.999 400.667,690.666 401.5,609.5 Z"/></g>
<g><path style="opacity:0.034" fill="#f3f4f6" d="M 535.5,708.5 C 540.049,708.624 544.382,709.291 548.5,710.5C 543.9,710.72 539.567,710.054 535.5,708.5 Z"/></g>
<g><path style="opacity:0.033" fill="#f1f1f4" d="M 513.5,703.5 C 516.428,703.565 519.095,704.232 521.5,705.5C 518.505,705.706 515.838,705.04 513.5,703.5 Z"/></g>
<g><path style="opacity:0.05" fill="#eaeaef" d="M 496.5,698.5 C 501.072,699.388 505.405,700.721 509.5,702.5C 504.736,702.231 500.403,700.898 496.5,698.5 Z"/></g>
<g><path style="opacity:0.029" fill="#eeeef2" d="M 487.5,695.5 C 490.785,695.928 493.785,696.928 496.5,698.5C 493.084,698.472 490.084,697.472 487.5,695.5 Z"/></g>
<g><path style="opacity:0.037" fill="#d0d0dc" d="M 477.5,691.5 C 478.873,691.343 480.207,691.51 481.5,692C 483.618,693.082 485.618,694.249 487.5,695.5C 483.703,695.128 480.37,693.794 477.5,691.5 Z"/></g>
<g><path style="opacity:0.106" fill="#eaebef" d="M 465.5,686.5 C 468.241,686.707 470.574,687.707 472.5,689.5C 469.759,689.293 467.426,688.293 465.5,686.5 Z"/></g>
<g><path style="opacity:0.029" fill="#f8f9f9" d="M 461.5,684.5 C 463.153,684.66 464.486,685.326 465.5,686.5C 463.62,686.771 462.287,686.104 461.5,684.5 Z"/></g>
<g><path style="opacity:0.051" fill="#f0f1f4" d="M 451.5,679.5 C 453.819,679.992 455.819,680.992 457.5,682.5C 454.911,682.539 452.911,681.539 451.5,679.5 Z"/></g>
<g><path style="opacity:0.149" fill="#dbdce5" d="M 444.5,675.5 C 447.331,676.079 449.664,677.412 451.5,679.5C 448.669,678.921 446.336,677.588 444.5,675.5 Z"/></g>
<g><path style="opacity:0.235" fill="#e3e3ea" d="M 436.5,670.5 C 438.853,671.34 440.853,672.674 442.5,674.5C 439.802,674.155 437.802,672.822 436.5,670.5 Z"/></g>
<g><path style="opacity:0.416" fill="#d4d5e0" d="M 430.5,666.5 C 432.404,666.738 433.738,667.738 434.5,669.5C 432.596,669.262 431.262,668.262 430.5,666.5 Z"/></g>
<g><path style="opacity:0.242" fill="#f1f2f4" d="M 401.5,609.5 C 400.667,690.666 400.167,771.999 400,853.5C 398.548,860.438 394.714,865.438 388.5,868.5C 390.461,866.037 392.628,863.703 395,861.5C 396.608,858.618 397.941,855.618 399,852.5C 398.563,775.963 398.396,699.463 398.5,623C 398.766,618.108 399.432,613.275 400.5,608.5C 401.107,608.624 401.44,608.957 401.5,609.5 Z"/></g>
<g><path style="opacity:0.451" fill="#b1b4c5" d="M 244.5,612.5 C 244.833,612.5 245.167,612.5 245.5,612.5C 245.18,695.851 245.514,779.185 246.5,862.5C 245.71,861.391 245.21,860.058 245,858.5C 244.5,849.84 244.334,841.173 244.5,832.5C 244.5,759.167 244.5,685.833 244.5,612.5 Z"/></g>
<g><path style="opacity:0.192" fill="#d1d2dd" d="M 221.5,857.5 C 221.833,857.5 222.167,857.5 222.5,857.5C 222.687,861.913 223.354,866.246 224.5,870.5C 222.124,866.607 221.124,862.273 221.5,857.5 Z"/></g>
<g><path style="opacity:0.149" fill="#e8e8ee" d="M 246.5,862.5 C 247.906,862.973 248.573,863.973 248.5,865.5C 247.094,865.027 246.427,864.027 246.5,862.5 Z"/></g>
<g><path style="opacity:0.059" fill="#e0e0e9" d="M 421.5,863.5 C 421.741,865.898 421.074,867.898 419.5,869.5C 419.595,867.214 420.262,865.214 421.5,863.5 Z"/></g>
<g><path style="opacity:0.125" fill="#dfe0e7" d="M 250.5,867.5 C 253.257,868.512 255.924,869.512 258.5,870.5C 257.833,870.5 257.167,870.5 256.5,870.5C 253.911,870.539 251.911,869.539 250.5,867.5 Z"/></g>
<g><path style="opacity:0.769" fill="#6d6e92" d="M 385.5,869.5 C 384.048,870.302 382.382,870.802 380.5,871C 338.998,871.831 297.665,871.665 256.5,870.5C 257.167,870.5 257.833,870.5 258.5,870.5C 301.022,870.728 343.355,870.395 385.5,869.5 Z"/></g>
<g><path style="opacity:0.016" fill="#dfdfe8" d="M 419.5,869.5 C 419.573,871.027 418.906,872.027 417.5,872.5C 417.427,870.973 418.094,869.973 419.5,869.5 Z"/></g>
<g><path style="opacity:0.055" fill="#e3e3ea" d="M 417.5,872.5 C 417.727,874.933 416.727,876.599 414.5,877.5C 415.11,875.566 416.11,873.899 417.5,872.5 Z"/></g>
<g><path style="opacity:0.137" fill="#dfe0e8" d="M 224.5,870.5 C 226.195,872.897 227.528,875.563 228.5,878.5C 225.863,876.518 224.53,873.852 224.5,870.5 Z"/></g>
<g><path style="opacity:0.024" fill="#dcdde6" d="M 228.5,878.5 C 230.587,879.585 231.92,881.251 232.5,883.5C 230.413,882.415 229.08,880.749 228.5,878.5 Z"/></g>
<g><path style="opacity:0.016" fill="#ebebf0" d="M 413.5,878.5 C 413.167,880.833 411.833,882.167 409.5,882.5C 410.5,880.833 411.833,879.5 413.5,878.5 Z"/></g>
<g><path style="opacity:0.016" fill="#fafbfb" d="M 232.5,883.5 C 233.5,883.833 234.167,884.5 234.5,885.5C 233.167,885.5 232.5,884.833 232.5,883.5 Z"/></g>
<g><path style="opacity:0.043" fill="#e5e6ec" d="M 407.5,884.5 C 406.738,886.262 405.404,887.262 403.5,887.5C 404.262,885.738 405.596,884.738 407.5,884.5 Z"/></g>
<g><path style="opacity:0.439" fill="#d5d6e0" d="M 234.5,885.5 C 236.404,885.738 237.738,886.738 238.5,888.5C 236.596,888.262 235.262,887.262 234.5,885.5 Z"/></g>
<g><path style="opacity:0.137" fill="#e5e6ec" d="M 238.5,888.5 C 242.354,889.93 246.021,891.597 249.5,893.5C 245.164,893.163 241.497,891.496 238.5,888.5 Z"/></g>
<g><path style="opacity:0.106" fill="#dfdfe8" d="M 401.5,888.5 C 400.713,890.104 399.38,890.771 397.5,890.5C 398.514,889.326 399.847,888.66 401.5,888.5 Z"/></g>
<g><path style="opacity:0.029" fill="#ededf2" d="M 397.5,890.5 C 394.916,892.472 391.916,893.472 388.5,893.5C 391.215,891.928 394.215,890.928 397.5,890.5 Z"/></g>
</svg>
